<svg id="Layer_1" data-name="Layer 1" xmlns="http://www.w3.org/2000/svg" xmlns:xlink="http://www.w3.org/1999/xlink" viewBox="0 0 351.37 285.9" width="161" height="120"><defs><linearGradient id="linear-gradient" x1="272.48" y1="-2.53" x2="272.48" y2="113.69" gradientTransform="matrix(1, 0, 0, -1, -42.48, 126.51)" gradientUnits="userSpaceOnUse"><stop offset="0" stop-color="#7c7c7c"/><stop offset="0.58"/></linearGradient></defs><path d="M113.5,92.39c4.7,4.6,17,10.6,22.3,17.4s24.7,24.4,24.7,24.4l-3.4-50.3,19.4,15,10.3,12.3,6.7,12.7,5,6.4,16.7-24.4,8-14,7.7-2.7,9.3,9.3,8.3,14.7,8.1,11.5,6.9,8,7.7-9.5,8-13.7,9.3-12.7,8.7-5.7,7-5.7,1,15.7-3,21.3,2,13.1,5.3-3.5,11-14,15.7-12.3s7.9-7,10-9.5" transform="translate(-56.6 -2.79)" style="fill:none;stroke:#ffd34e;stroke-linejoin:round;stroke-width:11px"/><path d="M230.6,91.89a66.06,66.06,0,0,1,9.3,11.5c7.3,11,12.5,23,16.6,35.5a203.55,203.55,0,0,1,7.4,32.7c1.5,9.4,1.1,18.8,0,28.2a209.41,209.41,0,0,1-20.9,69.5c-2.8,5.6-6,10.9-9.1,16.3-.6,1.1-1.5,2-2.2,3.1-1.9-.3-2.4-1.8-3.1-3-2.8-4.8-5.6-9.7-8.2-14.6a204.61,204.61,0,0,1-17.8-48.5,178.34,178.34,0,0,1-4.7-31.7,153.63,153.63,0,0,1,1.6-33.9c3.2-20.5,10.5-39.5,23-56.3A44.31,44.31,0,0,1,230.6,91.89Z" transform="translate(-56.6 -2.79)" style="fill:#10793b"/><path d="M371.4,115.89a26.14,26.14,0,0,0,2.4-2.2,108.7,108.7,0,0,1,30.4-23.9,18.87,18.87,0,0,1,3.3-1.3c.9,1.1.3,1.8-.1,2.5a109.42,109.42,0,0,0-9.9,31.9,80.51,80.51,0,0,0-.9,13.9,69.51,69.51,0,0,1-1.1,12.9,192.79,192.79,0,0,1-7.8,33.6,171.47,171.47,0,0,1-21.5,43.8c-16,23.2-36.9,40.6-62.3,52.7a113.75,113.75,0,0,1-21.1,7.8,8.68,8.68,0,0,1-2.3.1c-.1,0-.2-.2-.4-.4.3-1.5,1.7-2.1,2.8-2.9a175.87,175.87,0,0,0,35.8-33.1,169.86,169.86,0,0,0,22.2-34.6,180.24,180.24,0,0,0,15.7-52.1,184.31,184.31,0,0,0,1.7-29.7,19.4,19.4,0,0,0-.2-3.4Z" transform="translate(-56.6 -2.79)" style="fill:#b2453e"/><path d="M358.1,131.39a63,63,0,0,1,.2-22.9c.2-.9.2-1.9.4-3.2a7.5,7.5,0,0,1,2.2,1.1c2.8,2.6,5.6,5.2,8.4,7.9.6.5,1.2,1,2.1,1.7" transform="translate(-56.6 -2.79)" style="fill:#ffd34e"/><path d="M204.8,285.09c-1,1.1-1.8.3-2.6-.2a202.53,202.53,0,0,1-38.2-28.8,164.37,164.37,0,0,1-25.2-30,83.59,83.59,0,0,1-7.1-13.6,190.12,190.12,0,0,1-14-55.6c-.6-5.9-.7-11.8-.9-17.7a174.31,174.31,0,0,0-4.9-36c-.6-2.4-1.6-4.8-2.4-7.2.6-.8,1.3-.4,1.8,0,5.4,3.7,11,7.2,16.2,11.1a119.91,119.91,0,0,1,21.9,21.4,7.49,7.49,0,0,1,1.9,5.7c-.8,8-.3,16,0,24a222.43,222.43,0,0,0,5.1,38A189.09,189.09,0,0,0,166.9,230c6.8,16.2,15.7,31.1,27.7,44,3.1,3.4,6.5,6.5,9.8,9.8A6.47,6.47,0,0,0,204.8,285.09Z" transform="translate(-56.6 -2.79)" style="fill:#0a1c77"/><path d="M258,287.59c-.4-1.6.9-2,1.7-2.6a139.64,139.64,0,0,0,16.6-18.6,161.71,161.71,0,0,0,23.6-45.3A209,209,0,0,0,310.5,171c.6-7.2,1.1-14.3,1.4-21.5a111.19,111.19,0,0,0-.4-12.9,8.3,8.3,0,0,1,1.8-5.7,117.25,117.25,0,0,1,17-17.5c6.6-5.6,11.4-8.5,18.7-13a6.47,6.47,0,0,1,1.3-.4,3.08,3.08,0,0,1,.4.9c-2.8,6.5-1.8,11.3-2.8,18.3a237.85,237.85,0,0,0-2.4,29.1,171.74,171.74,0,0,1-5.1,37,211.38,211.38,0,0,1-9.4,29.2c-3.4,8.6-8.4,16.1-14,23.4-14.7,19.1-32.7,34.5-53.1,47.2-1.5.9-3,1.8-4.6,2.6C259,287.69,258.5,287.59,258,287.59Z" transform="translate(-56.6 -2.79)" style="fill:#77110a"/><path d="M303.3,90.89a12.61,12.61,0,0,1-.4,2.8c-4.1,14.8-4.8,29.9-3.5,45.2.5,6.5,1.4,13,1.7,19.6.3,6.4.4,12.8.1,19.2a159.93,159.93,0,0,1-4.4,30.8c-6.4,25.2-18.5,47.2-38,64.8-2.4,2.1-5,4-7.5,6a1.32,1.32,0,0,1-2.1-.1,5.64,5.64,0,0,1,.4-1.2,197.64,197.64,0,0,0,16.6-36.6,182.92,182.92,0,0,0,9.6-46.8c.3-4.6.7-9.3.6-13.9a94,94,0,0,0-1.3-12.9c-1.8-10.6-3.4-21.1-4.2-31.8a17.18,17.18,0,0,1,1.9-9.2c6.4-12.9,14.8-24.3,26-33.4C300.2,92.29,301.2,91,303.3,90.89Z" transform="translate(-56.6 -2.79)" style="fill:#66977a"/><path d="M214.9,279.89c-1.5,1.2-2.2.3-2.9-.3-3.8-3.2-7.7-6.2-11.2-9.7a123.37,123.37,0,0,1-29.6-47.7c-7.5-21.5-9.8-43.6-8-66.2.6-7.2,1.3-14.3,1.8-21.5a125,125,0,0,0-3.2-37.6l-1.5-5.4c1.6-.5,2.3.6,3.1,1.2a92,92,0,0,1,22,24.5c2.1,3.4,3.9,7,5.8,10.5a14.78,14.78,0,0,1,1.8,8.8,244.66,244.66,0,0,1-3.4,27.1,105,105,0,0,0-2.1,26.2,198.84,198.84,0,0,0,6.6,40.6,210.58,210.58,0,0,0,17.9,44.4C212.9,276.39,213.9,278.09,214.9,279.89Z" transform="translate(-56.6 -2.79)" style="fill:#83ba9b"/><path d="M93.5,114.49c2.8-1.5,4.5-3.8,6.3-6,1.5-1.8,2.7-3.9,4.1-5.9a23.15,23.15,0,0,1,1.6-1.9c.5.6.9.9,1,1.3a58.09,58.09,0,0,1,1.1,7.1c.3,6.7.6,13.4-.2,20.1Z" transform="translate(-56.6 -2.79)" style="fill:#ffd34e"/><path d="M107.3,129.29a80.75,80.75,0,0,0-.4,13.9,181.2,181.2,0,0,0,10.5,55.4,172.51,172.51,0,0,0,44.7,67.8,168.17,168.17,0,0,0,22.4,18,8.06,8.06,0,0,1,1.4,1.2c-.1,1.3-.9,1.3-1.7,1.1-4.3-1.3-8.6-2.5-12.8-4.1A154.64,154.64,0,0,1,103,231a165,165,0,0,1-22.4-40.7c-6.1-15.8-9.6-32.1-11.8-48.8a9.66,9.66,0,0,1-.1-2.4c.7-16.3-2.8-31.7-9.5-46.5-.8-1.7-1.4-3.5-2.6-6.2A95.8,95.8,0,0,1,77.2,99a120,120,0,0,1,16.3,15.6" transform="translate(-56.6 -2.79)" style="fill:#0e259f"/><path d="M134.1,157.19" transform="translate(-56.6 -2.79)" style="fill:#eee2f9;stroke:#c8c191;stroke-miterlimit:10"/><path d="M230.5,85.29c-5,0-13.8,10.6-16.7,14.1-5.4,6.5-9,14.4-12.7,22a20.13,20.13,0,0,1-1.4,2.5c-.1.2-.6.3-1.2.5a23.41,23.41,0,0,1-1.5-2.7,79.16,79.16,0,0,0-11.2-19,84.06,84.06,0,0,0-28.3-22.6c-1-.5-2.1-.8-3.1-1.2-.3-.1-.6.1-1.1.2-.6,3.8.8,7.5.9,11.3s.7,7.3,1,11,.7,7.7.8,11.5c.1,3.6,1,7.2.5,11.4-1-.6-1.6-.8-1.9-1.2-8.2-11.3-19-19.8-30.6-27.3a54.85,54.85,0,0,1-8.1-5.8c1-1.1,3.4-3.6,4.3-4.4,17.4-16.2,33.5-30.7,52.5-44.9,10.4-7.8,20.9-15.3,31.3-23,1.5-1.1,3.8-3.1,5.3-4.3,4.6-3.6,11.8,7.4,17.6,7.6,5.2.1,16.3-6,16.3-6s1.8,1.5,5.3,4.2c7.3,5.7,14.6,11.5,21.8,17.3,23.3,18.5,45.6,36.1,68.9,54.6a57.2,57.2,0,0,1,4.9,3.7c-2.8,2.3-5.7,4.8-8.3,6.8s-5.3,3.7-7.7,5.7a96.12,96.12,0,0,0-7.3,7c-2.2,2.3-4.2,4.8-6.4,7.1s-3.8,5.4-6.3,7.5c-1.4-.9-1.1-2.1-1.1-3.2.1-12.3.2-24.6.2-37,0-2.2.5-4.5-.2-6.9a21.58,21.58,0,0,0-2.7.5,32.42,32.42,0,0,0-9.4,5.7,90.55,90.55,0,0,0-13.5,14.2,183.54,183.54,0,0,0-14.3,21.6q-1.2,2.1-2.4,3.9c-1.8.1-2.1-1.2-2.6-2.1-2.6-4.6-4.6-9.6-7.7-13.8C249.2,104.79,236.2,85.29,230.5,85.29Z" transform="translate(-56.6 -2.79)" style="fill:url(#linear-gradient)"/><path d="M225,51.29c-12.3,0-34.7-4.3-45.5-13.6,6.3-4.9,32.3-24.9,44.5-32.9a4.54,4.54,0,0,1,.9-.5c.2.2.5,1,.8,3.2.6,4.4.8,10.8.8,10.9a1.45,1.45,0,0,0,1.5,1.4h0a1.54,1.54,0,0,0,1.5-1.5,83.31,83.31,0,0,1,.5-10.5c.3-2.4.8-3.2,1-3.4a5,5,0,0,1,.8.6c10.4,10.4,33.9,29.7,39.4,34.1-7.7,8.5-28.8,11.9-45.1,12.2Z" transform="translate(-56.6 -2.79)" style="fill:#fff"/><path d="M232.1,5.29h0m-6.7.5h0m-1.4.8c.1.3.1.7.2,1.1.5,4.3.8,10.7.8,10.7a3.06,3.06,0,0,0,3,2.9h.1a2.92,2.92,0,0,0,2.9-3A80,80,0,0,1,231.5,8c.1-.4.1-.7.2-1,10.3,10.1,30.2,26.5,37.3,32.2-8.2,7.3-27.7,10.3-42.9,10.6h-1c-11.5,0-32.1-3.8-43.1-12,7.9-6.2,30.4-23.5,42-31.2m1.1-3.8a4.06,4.06,0,0,0-1.9.8c-14.1,9.2-46,34.1-46,34.1,10.3,10,33.9,15.1,47.8,15.1h1c11.3-.2,38.7-2.4,47.2-13.9,0,0-28.6-23.1-40.5-35a2.94,2.94,0,0,0-1.9-1.1c-1.1,0-1.9,1.5-2.4,4.8a89.25,89.25,0,0,0-.5,10.8s-.2-6.5-.8-11c-.3-3.3-.9-4.6-2-4.6Z" transform="translate(-56.6 -2.79)"/></svg>