<svg id="Layer_1" data-name="Layer 1" xmlns="http://www.w3.org/2000/svg" viewBox="0 0 60.9 93.47" height="93" width="72"><path id="path3317" d="M34.54,91.51S17,72.64,17,46.22,34.54.93,34.54.93,52.05,19.8,52.05,46.22,34.54,91.51,34.54,91.51Z" transform="translate(-0.47 0)" style="fill:#fe744f;fill-opacity:0.5;stroke:#da6048;stroke-width:0.5073578953742981px"/><circle cx="51.58" cy="44.97" r="1.25" style="fill:#da6048"/><circle cx="51.04" cy="53.68" r="1.25" style="fill:#da6048"/><circle cx="50.7" cy="36.26" r="1.25" style="fill:#da6048"/><circle cx="48.54" cy="27.87" r="1.25" style="fill:#da6048"/><circle cx="45.73" cy="20.11" r="1.25" style="fill:#da6048"/><circle cx="41.99" cy="11.97" r="1.25" style="fill:#da6048"/><circle cx="36.8" cy="4.52" r="1.25" style="fill:#da6048"/><circle cx="16.29" cy="44.97" r="1.25" style="fill:#da6048"/><circle cx="17.18" cy="36.26" r="1.25" style="fill:#da6048"/><circle cx="19.33" cy="27.87" r="1.25" style="fill:#da6048"/><circle cx="22.15" cy="20.11" r="1.25" style="fill:#da6048"/><circle cx="25.88" cy="11.97" r="1.25" style="fill:#da6048"/><circle cx="31.07" cy="4.52" r="1.25" style="fill:#da6048"/><circle cx="49.28" cy="62.08" r="1.25" style="fill:#da6048"/><circle cx="46.81" cy="69.85" r="1.25" style="fill:#da6048"/><circle cx="43.24" cy="77.98" r="1.25" style="fill:#da6048"/><circle cx="38.39" cy="85.44" r="1.25" style="fill:#da6048"/><circle cx="34.09" cy="91.09" r="1.25" style="fill:#da6048"/><circle cx="17.08" cy="53.68" r="1.25" style="fill:#da6048"/><circle cx="18.82" cy="62.08" r="1.25" style="fill:#da6048"/><circle cx="21.31" cy="69.85" r="1.25" style="fill:#da6048"/><circle cx="24.86" cy="77.98" r="1.25" style="fill:#da6048"/><circle cx="29.71" cy="85.44" r="1.25" style="fill:#da6048"/><circle cx="27.13" cy="26.47" r="1.25" style="fill:#da6048"/><circle cx="34.94" cy="20.67" r="1.25" style="fill:#da6048"/><circle cx="38.05" cy="33.99" r="1.25" style="fill:#da6048"/><circle cx="29.71" cy="16.51" r="1.25" style="fill:#da6048"/><circle cx="25.88" cy="38.53" r="1.25" style="fill:#da6048"/><circle cx="44.48" cy="41.06" r="1.25" style="fill:#da6048"/><circle cx="38.05" cy="33.99" r="1.25" style="fill:#da6048"/><circle cx="38.39" cy="46.46" r="1.25" style="fill:#da6048"/><circle cx="27.4" cy="51.46" r="1.25" style="fill:#da6048"/><circle cx="27.13" cy="58.94" r="1.25" style="fill:#da6048"/><circle cx="32.76" cy="65.43" r="1.25" style="fill:#da6048"/><circle cx="39.3" cy="56.38" r="1.25" style="fill:#da6048"/><circle cx="39.3" cy="73.16" r="1.25" style="fill:#da6048"/><circle cx="29.71" cy="73.16" r="1.25" style="fill:#da6048"/><circle cx="34.31" cy="80.09" r="1.25" style="fill:#da6048"/><line x1="31.07" y1="4.52" x2="29.71" y2="16.51" style="fill:none;stroke:#da6048;stroke-width:0.5073578953742981px"/><line x1="25.88" y1="11.97" x2="29.71" y2="16.51" style="fill:none;stroke:#da6048;stroke-width:0.5073578953742981px"/><line x1="36.8" y1="4.52" x2="29.71" y2="16.51" style="fill:none;stroke:#da6048;stroke-width:0.5073578953742981px"/><line x1="34.94" y1="20.67" x2="36.8" y2="4.52" style="fill:none;stroke:#da6048;stroke-width:0.5073578953742981px"/><line x1="41.99" y1="11.97" x2="34.94" y2="20.67" style="fill:none;stroke:#da6048;stroke-width:0.5073578953742981px"/><line x1="29.71" y1="16.51" x2="34.94" y2="20.67" style="fill:none;stroke:#da6048;stroke-width:0.5073578953742981px"/><line x1="22.15" y1="20.11" x2="34.94" y2="20.67" style="fill:none;stroke:#da6048;stroke-width:0.5073578953742981px"/><line x1="27.13" y1="26.47" x2="22.15" y2="20.11" style="fill:none;stroke:#da6048;stroke-width:0.5073578953742981px"/><line x1="19.33" y1="27.87" x2="27.13" y2="26.47" style="fill:none;stroke:#da6048;stroke-width:0.5073578953742981px"/><line x1="34.94" y1="20.67" x2="27.13" y2="26.47" style="fill:none;stroke:#da6048;stroke-width:0.5073578953742981px"/><line x1="29.71" y1="16.51" x2="22.15" y2="20.11" style="fill:none;stroke:#da6048;stroke-width:0.5073578953742981px"/><line x1="34.94" y1="20.67" x2="45.73" y2="20.11" style="fill:none;stroke:#da6048;stroke-width:0.5073578953742981px"/><line x1="38.05" y1="33.99" x2="34.94" y2="20.67" style="fill:none;stroke:#da6048;stroke-width:0.5073578953742981px"/><line x1="25.88" y1="38.53" x2="27.13" y2="26.47" style="fill:none;stroke:#da6048;stroke-width:0.5073578953742981px"/><line x1="38.05" y1="33.99" x2="27.13" y2="26.47" style="fill:none;stroke:#da6048;stroke-width:0.5073578953742981px"/><line x1="25.88" y1="38.53" x2="38.05" y2="33.99" style="fill:none;stroke:#da6048;stroke-width:0.5073578953742981px"/><line x1="48.54" y1="27.87" x2="34.94" y2="20.67" style="fill:none;stroke:#da6048;stroke-width:0.5073578953742981px"/><line x1="38.05" y1="33.99" x2="48.54" y2="27.87" style="fill:none;stroke:#da6048;stroke-width:0.5073578953742981px"/><line x1="17.18" y1="36.26" x2="27.13" y2="26.47" style="fill:none;stroke:#da6048;stroke-width:0.5073578953742981px"/><line x1="25.88" y1="38.53" x2="17.18" y2="36.26" style="fill:none;stroke:#da6048;stroke-width:0.5073578953742981px"/><line x1="16.29" y1="44.97" x2="25.88" y2="38.53" style="fill:none;stroke:#da6048;stroke-width:0.5073578953742981px"/><line x1="17.08" y1="53.68" x2="27.4" y2="51.46" style="fill:none;stroke:#da6048;stroke-width:0.5073578953742981px"/><line x1="25.88" y1="38.53" x2="27.4" y2="51.46" style="fill:none;stroke:#da6048;stroke-width:0.5073578953742981px"/><line x1="16.29" y1="44.97" x2="27.4" y2="51.46" style="fill:none;stroke:#da6048;stroke-width:0.5073578953742981px"/><line x1="38.05" y1="33.99" x2="38.39" y2="46.46" style="fill:none;stroke:#da6048;stroke-width:0.5073578953742981px"/><line x1="25.88" y1="38.53" x2="38.39" y2="46.46" style="fill:none;stroke:#da6048;stroke-width:0.5073578953742981px"/><line x1="27.4" y1="51.46" x2="38.39" y2="46.46" style="fill:none;stroke:#da6048;stroke-width:0.5073578953742981px"/><line x1="44.48" y1="41.06" x2="38.39" y2="46.46" style="fill:none;stroke:#da6048;stroke-width:0.5073578953742981px"/><line x1="38.05" y1="33.99" x2="44.48" y2="41.06" style="fill:none;stroke:#da6048;stroke-width:0.5073578953742981px"/><line x1="50.7" y1="36.26" x2="38.05" y2="33.99" style="fill:none;stroke:#da6048;stroke-width:0.5073578953742981px"/><line x1="44.48" y1="41.06" x2="50.7" y2="36.26" style="fill:none;stroke:#da6048;stroke-width:0.5073578953742981px"/><line x1="51.58" y1="44.97" x2="44.48" y2="41.06" style="fill:none;stroke:#da6048;stroke-width:0.5073578953742981px"/><line x1="38.39" y1="46.46" x2="51.58" y2="44.97" style="fill:none;stroke:#da6048;stroke-width:0.5073578953742981px"/><line x1="51.04" y1="53.68" x2="38.39" y2="46.46" style="fill:none;stroke:#da6048;stroke-width:0.5073578953742981px"/><line x1="39.3" y1="56.38" x2="27.4" y2="51.46" style="fill:none;stroke:#da6048;stroke-width:0.5073578953742981px"/><line x1="38.39" y1="46.46" x2="39.3" y2="56.38" style="fill:none;stroke:#da6048;stroke-width:0.5073578953742981px"/><line x1="51.04" y1="53.68" x2="39.3" y2="56.38" style="fill:none;stroke:#da6048;stroke-width:0.5073578953742981px"/><line x1="27.13" y1="58.94" x2="27.4" y2="51.46" style="fill:none;stroke:#da6048;stroke-width:0.5073578953742981px"/><line x1="18.82" y1="62.08" x2="27.13" y2="58.94" style="fill:none;stroke:#da6048;stroke-width:0.5073578953742981px"/><line x1="17.08" y1="53.68" x2="27.13" y2="58.94" style="fill:none;stroke:#da6048;stroke-width:0.5073578953742981px"/><line x1="39.3" y1="56.38" x2="27.13" y2="58.94" style="fill:none;stroke:#da6048;stroke-width:0.5073578953742981px"/><line x1="49.28" y1="62.08" x2="39.3" y2="56.38" style="fill:none;stroke:#da6048;stroke-width:0.5073578953742981px"/><line x1="46.81" y1="69.85" x2="38.85" y2="56.69" style="fill:none;stroke:#da6048;stroke-width:0.5073578953742981px"/><line x1="32.76" y1="65.43" x2="27.13" y2="58.94" style="fill:none;stroke:#da6048;stroke-width:0.5073578953742981px"/><line x1="39.64" y1="55.83" x2="32.76" y2="65.43" style="fill:none;stroke:#da6048;stroke-width:0.5073578953742981px"/><line x1="39.3" y1="73.16" x2="39.3" y2="56.38" style="fill:none;stroke:#da6048;stroke-width:0.5073578953742981px"/><line x1="43.24" y1="77.98" x2="39.3" y2="73.16" style="fill:none;stroke:#da6048;stroke-width:0.5073578953742981px"/><line x1="32.76" y1="65.43" x2="39.3" y2="73.16" style="fill:none;stroke:#da6048;stroke-width:0.5073578953742981px"/><line x1="46.81" y1="69.85" x2="39.3" y2="73.16" style="fill:none;stroke:#da6048;stroke-width:0.5073578953742981px"/><line x1="29.71" y1="73.16" x2="32.76" y2="65.43" style="fill:none;stroke:#da6048;stroke-width:0.5073578953742981px"/><line x1="27.13" y1="58.94" x2="21.31" y2="69.85" style="fill:none;stroke:#da6048;stroke-width:0.5073578953742981px"/><line x1="29.71" y1="73.16" x2="27.13" y2="58.94" style="fill:none;stroke:#da6048;stroke-width:0.5073578953742981px"/><line x1="24.86" y1="77.98" x2="29.71" y2="73.16" style="fill:none;stroke:#da6048;stroke-width:0.5073578953742981px"/><line x1="34.31" y1="80.09" x2="29.71" y2="73.16" style="fill:none;stroke:#da6048;stroke-width:0.5073578953742981px"/><line x1="39.3" y1="73.16" x2="29.71" y2="73.16" style="fill:none;stroke:#da6048;stroke-width:0.5073578953742981px"/><line x1="42.82" y1="77.49" x2="34.31" y2="80.09" style="fill:none;stroke:#da6048;stroke-width:0.5073578953742981px"/><line x1="38.39" y1="85.44" x2="34.31" y2="80.09" style="fill:none;stroke:#da6048;stroke-width:0.5073578953742981px"/><line x1="29.71" y1="85.44" x2="34.31" y2="80.09" style="fill:none;stroke:#da6048;stroke-width:0.5073578953742981px"/><line x1="34.09" y1="91.09" x2="34.31" y2="80.09" style="fill:none;stroke:#da6048;stroke-width:0.5073578953742981px"/><line x1="24.86" y1="77.98" x2="34.31" y2="80.09" style="fill:none;stroke:#da6048;stroke-width:0.5073578953742981px"/><line x1="29.71" y1="73.16" x2="21.31" y2="69.85" style="fill:none;stroke:#da6048;stroke-width:0.5073578953742981px"/><circle cx="50.11" cy="91.09" r="1.25" style="fill:#da6048"/><circle cx="48.27" cy="82.77" r="1.25" style="fill:#da6048"/><circle cx="12.24" cy="92.22" r="1.25" style="fill:#da6048"/><circle cx="13.44" cy="84.58" r="1.25" style="fill:#da6048"/><circle cx="18.43" cy="78.05" r="1.25" style="fill:#da6048"/><circle cx="17.03" cy="23.91" r="1.25" style="fill:#da6048"/><circle cx="17.79" cy="17.76" r="1.25" style="fill:#da6048"/><circle cx="7.86" cy="7.88" r="1.25" style="fill:#da6048"/><circle cx="1.25" cy="3.42" r="1.25" style="fill:#da6048"/><circle cx="4.41" cy="12.57" r="1.25" style="fill:#da6048"/><circle cx="7.54" cy="18.65" r="1.25" style="fill:#da6048"/><circle cx="10.79" cy="23.44" r="1.25" style="fill:#da6048"/><line x1="18.99" y1="27.28" x2="17.03" y2="23.91" style="fill:none;stroke:#da6048;stroke-width:0.5073578953742981px"/><line x1="10.81" y1="23.59" x2="16.91" y2="23.93" style="fill:none;stroke:#da6048;stroke-width:0.5073578953742981px"/><line x1="17.79" y1="17.76" x2="16.91" y2="23.93" style="fill:none;stroke:#da6048;stroke-width:0.5073578953742981px"/><line x1="7.86" y1="7.88" x2="17.79" y2="17.76" style="fill:none;stroke:#da6048;stroke-width:0.5073578953742981px"/><line x1="1.25" y1="3.42" x2="7.86" y2="7.88" style="fill:none;stroke:#da6048;stroke-width:0.5073578953742981px"/><line x1="4.41" y1="12.57" x2="1.25" y2="3.42" style="fill:none;stroke:#da6048;stroke-width:0.5073578953742981px"/><line x1="7.54" y1="18.65" x2="4.41" y2="12.57" style="fill:none;stroke:#da6048;stroke-width:0.5073578953742981px"/><line x1="10.81" y1="23.59" x2="7.54" y2="18.65" style="fill:none;stroke:#da6048;stroke-width:0.5073578953742981px"/><line x1="10.72" y1="23.44" x2="17.91" y2="17.74" style="fill:none;stroke:#da6048;stroke-width:0.5073578953742981px"/><line x1="7.86" y1="7.88" x2="4.41" y2="12.57" style="fill:none;stroke:#da6048;stroke-width:0.5073578953742981px"/><line x1="7.54" y1="18.65" x2="7.86" y2="7.88" style="fill:none;stroke:#da6048;stroke-width:0.5073578953742981px"/><line x1="17.91" y1="17.74" x2="7.54" y2="18.65" style="fill:none;stroke:#da6048;stroke-width:0.5073578953742981px"/><line x1="21.31" y1="69.85" x2="18.62" y2="78.42" style="fill:none;stroke:#da6048;stroke-width:0.5073578953742981px"/><line x1="13.44" y1="84.58" x2="18.82" y2="78.1" style="fill:none;stroke:#da6048;stroke-width:0.5073578953742981px"/><line x1="12.24" y1="92.22" x2="13.44" y2="84.58" style="fill:none;stroke:#da6048;stroke-width:0.5073578953742981px"/><line x1="43.24" y1="77.98" x2="48.27" y2="82.77" style="fill:none;stroke:#da6048;stroke-width:0.5073578953742981px"/><line x1="50.11" y1="91.09" x2="48.27" y2="82.77" style="fill:none;stroke:#da6048;stroke-width:0.5073578953742981px"/><line x1="34.31" y1="80.09" x2="39.3" y2="73.16" style="fill:none;stroke:#da6048;stroke-width:0.5073578953742981px"/><circle cx="46.63" cy="10.84" r="1.25" style="fill:#da6048"/><circle cx="53.19" cy="1.25" r="1.25" style="fill:#da6048"/><circle cx="59.65" cy="5.83" r="1.25" style="fill:#da6048"/><circle cx="54.66" cy="9.49" r="1.25" style="fill:#da6048"/><circle cx="49.64" cy="7.8" r="1.25" style="fill:#da6048"/><circle cx="47.73" cy="15.9" r="1.25" style="fill:#da6048"/><circle cx="56.22" cy="3.97" r="1.25" style="fill:#da6048"/><circle cx="52.78" cy="15.46" r="1.25" style="fill:#da6048"/><line x1="45.66" y1="20.41" x2="47.73" y2="15.9" style="fill:none;stroke:#da6048;stroke-width:0.5073578953742981px"/><line x1="52.78" y1="15.46" x2="54.66" y2="9.49" style="fill:none;stroke:#da6048;stroke-width:0.5073578953742981px"/><line x1="46.63" y1="10.84" x2="49.64" y2="7.8" style="fill:none;stroke:#da6048;stroke-width:0.5073578953742981px"/><line x1="54.66" y1="9.49" x2="49.64" y2="7.8" style="fill:none;stroke:#da6048;stroke-width:0.5073578953742981px"/><line x1="46.63" y1="10.84" x2="54.66" y2="9.49" style="fill:none;stroke:#da6048;stroke-width:0.5073578953742981px"/><line x1="52.78" y1="15.46" x2="46.63" y2="10.84" style="fill:none;stroke:#da6048;stroke-width:0.5073578953742981px"/><line x1="53.24" y1="0.95" x2="49.64" y2="7.8" style="fill:none;stroke:#da6048;stroke-width:0.5073578953742981px"/><line x1="56.22" y1="3.97" x2="53.24" y2="0.95" style="fill:none;stroke:#da6048;stroke-width:0.5073578953742981px"/><line x1="59.65" y1="5.83" x2="56.22" y2="3.97" style="fill:none;stroke:#da6048;stroke-width:0.5073578953742981px"/><line x1="52.78" y1="15.46" x2="59.65" y2="5.83" style="fill:none;stroke:#da6048;stroke-width:0.5073578953742981px"/><line x1="54.66" y1="9.49" x2="56.22" y2="3.97" style="fill:none;stroke:#da6048;stroke-width:0.5073578953742981px"/><line x1="49.64" y1="7.8" x2="56.22" y2="3.97" style="fill:none;stroke:#da6048;stroke-width:0.5073578953742981px"/><line x1="54.66" y1="9.49" x2="59.65" y2="5.83" style="fill:none;stroke:#da6048;stroke-width:0.5073578953742981px"/><line x1="52.78" y1="15.46" x2="47.69" y2="15.83" style="fill:none;stroke:#da6048;stroke-width:0.5073578953742981px"/><line x1="46.51" y1="10.74" x2="47.69" y2="15.83" style="fill:none;stroke:#da6048;stroke-width:0.5073578953742981px"/></svg>