<svg id="Layer_1" data-name="Layer 1" xmlns="http://www.w3.org/2000/svg" viewBox="0 0 116.07 90.38" width="169" height="96"><path d="M98.17,2.73h0a1.86,1.86,0,0,0,1.56,1.36l2.8,12.3L76.32,3.65h0v-.1l21.83-.82Zm3.31.57L124.05,17l-18.31.13h0a1.84,1.84,0,0,0-1.65-1,.68.68,0,0,0-.2,0l-2.81-12.4h0a1.78,1.78,0,0,0,.4-.42Zm-28.63.92a1.76,1.76,0,0,0,.42.56L63.65,19.66a1.77,1.77,0,0,0-.56-.09,1.85,1.85,0,0,0-1.64,1l-16.89-3a2.29,2.29,0,0,0-.08-.28Zm2.85.67,24.46,11.89L80.52,18.94Zm-1.25.62,4.67,13.58L64.77,20.67a.37.37,0,0,0,0-.11ZM102,18,84.28,28.65h0a1.54,1.54,0,0,0-.5-.24L81,20.28,102,18Zm23.13.39h0a1.81,1.81,0,0,0,.42,1l-3.73,9.78L105.86,18.53h0l19.22-.14Zm-80.76.57,17,3a1.72,1.72,0,0,0,.25.53L47.88,36.61h-.16a2,2,0,0,0-.35,0c-.11-.53-.2-1-.34-1.73-.4-2-.94-4.68-1.48-7.31-.7-3.43-1.28-6.23-1.68-8.18a1.88,1.88,0,0,0,.45-.48Zm58,.45-8.26,25h0a1.92,1.92,0,0,0-.51.22l-9-13.17a1.88,1.88,0,0,0,.52-1.29,1.83,1.83,0,0,0-.05-.4l17.26-10.4Zm2.64.2,16.3,10.84-4.89,12.79h0a1.7,1.7,0,0,0-.67.13L104.93,19.61l0,0Zm22.38.33,11.88,20.79L123,29.89,126.74,20h.17a2.2,2.2,0,0,0,.44,0ZM103.58,20l11,24.38L96.24,45.59h0a1.87,1.87,0,0,0-.78-1L103.58,20Zm-24,.46,2.8,8.13a1.77,1.77,0,0,0-.54.44L65.37,22ZM64.11,23l17.25,7.35L71.7,35.7h0a1.84,1.84,0,0,0-1.17-.42H70.4L64.1,23h0Zm-1.39.34L69.15,35.9h0a1.84,1.84,0,0,0-.08,2.37l-9,14.38H60a2,2,0,0,0-.72.14L49.11,39.68a1.85,1.85,0,0,0,0-2.38l13.57-14Zm59.73,7.9,16.55,11-21.28,1.36ZM82,31.55a1.86,1.86,0,0,0,1.25.48h0l9.38,13.82a1.64,1.64,0,0,0,0,.38,1.61,1.61,0,0,0,.06.44l-6.32,9.61h0a1.74,1.74,0,0,0-.45.06L72.08,38.12a1.82,1.82,0,0,0,.29-1,1.49,1.49,0,0,0,0-.21L82,31.55ZM71,38.93,84.82,57.17h0l0,.06L61.73,54a1.88,1.88,0,0,0-.41-.76L70.27,39l.26,0a1.54,1.54,0,0,0,.43-.06Zm-25,.18L39.15,53.86h0a2,2,0,0,0-.81.44L27.57,49a1.37,1.37,0,0,0,0-.19Zm.93,1.3,3.41,22.86-9-6.8h0a1.85,1.85,0,0,0-.69-2.41Zm1.48.53,9.92,12.83h0a1.85,1.85,0,0,0,1,2.43,1.69,1.69,0,0,0,.44.12l6.39,18.29h0a1.8,1.8,0,0,0-.39.34L51.83,64.48,48.32,41Zm91.12,2.64-4,10.22-17.22-8.62h0V45l21.27-1.36Zm1.12.93,1.79,11.68h0a2,2,0,0,0-.71.73l-5-2.5Zm-26.18,1.26L111.93,61.5,96.18,47h0v0l18.2-1.2Zm1.25,1h0a1.85,1.85,0,0,0,.69.14,2,2,0,0,0,.54-.08l10.08,13.33-13.13,2.1a1.71,1.71,0,0,0-.54-.38Zm3.1.25,16.16,8.07-1.61,4.07-4.77.76L118.74,47ZM95.15,48,111,62.54h0a1.9,1.9,0,0,0-.33,1.06v0L98,71.31a2,2,0,0,0-.79-.42l-2.5-22.83a1.38,1.38,0,0,0,.4-.1Zm-1.79.24,2.45,22.22L88,59.14a1.85,1.85,0,0,0-.25-2.32ZM27.08,50.29l10.68,5.27v.09a1.82,1.82,0,0,0,.45,1.2L33.4,66.37h-.11l-6.53-15.8h0a2.79,2.79,0,0,0,.32-.28Zm34.49,5.1L84.4,58.58l-8.93,9.56a1.85,1.85,0,0,0-1.87.34l-12-13.09Zm74.57.33L140.67,58l-5.79.93,1.26-3.19ZM61.51,57.38,73,69.85v0a1.7,1.7,0,0,0,.1.59l-4.86,4.25h0a1.94,1.94,0,0,0-.78-.37Zm-21.31,0,10.34,7.83.89,5.94h0a1.94,1.94,0,0,0-.41.4L35.33,68h0a1.85,1.85,0,0,0-.62-1.18l4.73-9.32h0l.17,0a2,2,0,0,0,.59-.1ZM142,59.17l.06.06-6.38,9.62a1.85,1.85,0,0,0-.41.07l-2.88-3.81,1.85-4.7Zm-56.89.65L83.34,70.91h0a1.75,1.75,0,0,0-.7.7l-6-2a1.8,1.8,0,0,0-.15-.5l8.66-9.27Zm1.67.12,8.24,11.83-9,.33h0a1.86,1.86,0,0,0-1.28-1.36L86.53,60h0l.28,0Zm45.87.72-1.25,3.14-2-2.63Zm-4.79.76,2.94,3.9-1.2,3.07h0a1.81,1.81,0,0,0-1.81.6l-12.32-5.58,12.39-2Zm-13.19,3.13,12.67,5.76h0a1.83,1.83,0,0,0,.72,1.35L125,76.6a1.9,1.9,0,0,0-1.06-.33l-.29,0-8.93-11.74Zm-3.47.36h0a1.8,1.8,0,0,0,.77.44L113,75.79h0a1.85,1.85,0,0,0-.59,2.38L110.48,81a1.81,1.81,0,0,0-2,.07l-10-7.77a1.9,1.9,0,0,0,.11-.63v-.13l12.58-7.63Zm2.2.27,9,11.84h0a2.22,2.22,0,0,0-.25.42L115.82,77h0a1.84,1.84,0,0,0-1.5-1.49l-.94-10.27h0l.05,0ZM52.12,66.42l11.24,8.51-9-2.51h0a1.86,1.86,0,0,0-1.56-1.58Zm79.71.18,2.4,3.17h0a2.56,2.56,0,0,0-.11.24h-3.05a1.94,1.94,0,0,0-.27-.81l1-2.61ZM95,73.14h0a1.88,1.88,0,0,0,1.53,1.36l.71,10.87L85.79,73.5l0,0Zm2.93,1.44,9.78,7.64h0a2.2,2.2,0,0,0,0,.36v.14l-7.85,3.09h0a1.91,1.91,0,0,0-1.2-.61l-.69-10.62ZM108.31,84h0a1.66,1.66,0,0,0,.21.16l-1.27,3.39h0a1.84,1.84,0,0,0-1.37.77l-5.59-1a.39.39,0,0,1,0-.15l8-3.13Zm1.6.42,2.89,6.12-3.58-1.33h0a1.87,1.87,0,0,0-.65-1.24l1.33-3.55Zm-9,4.4,4.68.85h0a1.82,1.82,0,0,0,.72,1.2l-.22,1.66h0a1.79,1.79,0,0,0-.63.24l-4.56-4Zm8,1.73,4,1.49-5.06,1.1h0a2.11,2.11,0,0,0-.36-.31l.21-1.59a1.9,1.9,0,0,0,1.2-.68Z" transform="translate(-26.28 -2.73)" style="fill:#3ef8f4;opacity:0.5;isolation:isolate"/><polygon points="4.69 28.01 19.05 35.11 0 45.23 4.69 28.01" style="fill:#3ef8f4;opacity:0.5;isolation:isolate"/><polygon points="16.17 16.21 19.67 33.87 5.09 26.93 16.17 16.21" style="fill:#3ef8f4;opacity:0.5;isolation:isolate"/></svg>