<svg id="Layer_1" data-name="Layer 1" xmlns="http://www.w3.org/2000/svg" viewBox="0 0 94.7 92.7" width="84" height="68"><path d="M42.9,2a8.2,8.2,0,0,0-8.1,8.1,12.27,12.27,0,0,0-10,5.1,11.91,11.91,0,0,0-1.4,11.1c-.3,0-.5-.1-.8-.1a8.06,8.06,0,0,0-5.8,13.7,12,12,0,0,0-6.3,9.5A11.89,11.89,0,0,0,15,59.9a8.08,8.08,0,0,0,.9,7.4,8,8,0,0,0,6.7,3.4A12.29,12.29,0,0,0,34.8,82.9a7.87,7.87,0,0,0,4.1,7,8.34,8.34,0,0,0,8.1,0,8.07,8.07,0,0,0,4.1-7V9.9a8.2,8.2,0,0,0-2.4-5.7A8.91,8.91,0,0,0,42.9,2ZM22.6,59.7a1,1,0,0,1,0-2,6.92,6.92,0,0,0,4.7-1.8,6.79,6.79,0,0,0,2.3-4.4,9.26,9.26,0,0,1-7.1-5,8.78,8.78,0,0,1,.3-8.6,1,1,0,0,1,1.8,1,7,7,0,0,0-.4,6.3,6.9,6.9,0,0,0,4.7,4.1,7.28,7.28,0,0,0,6.2-1.2,7.16,7.16,0,0,0,2.8-5.6,1,1,0,0,1,2,0,9.11,9.11,0,0,1-8.2,9,9.25,9.25,0,0,1-2.9,5.8,9.12,9.12,0,0,1-6.2,2.4ZM38.8,80a1,1,0,0,1-1-1,7.17,7.17,0,0,0-7.1-7.1,1,1,0,0,1-1-1,1.08,1.08,0,0,1,1-1A9.22,9.22,0,0,1,39.8,79a.91.91,0,0,1-.3.7A.78.78,0,0,1,38.8,80Zm.5-10.4a.9.9,0,0,1-.5.1,1,1,0,0,1-1-.8,1,1,0,0,1,.5-1.1,7.05,7.05,0,0,0,3.5-6.1,7.14,7.14,0,0,0-3.5-6.1,1.47,1.47,0,0,1-.5-.6,1.13,1.13,0,0,1,.1-.8,1.47,1.47,0,0,1,.6-.5,1.13,1.13,0,0,1,.8.1,9.08,9.08,0,0,1,0,15.8Zm3.6-38.2a7.17,7.17,0,0,0-7.1,7.1,1,1,0,0,1-2,0,8.94,8.94,0,0,1,4-7.5v-.6a7.17,7.17,0,0,0-7.1-7.1,1,1,0,0,1,0-2A9.28,9.28,0,0,1,37,23.8,9,9,0,0,1,39.8,30a8.15,8.15,0,0,1,3.1-.6,1,1,0,0,1,1,1,1.08,1.08,0,0,1-1,1Zm0-12.2A8.92,8.92,0,0,1,35,14.6a1,1,0,1,1,1.8-1,7.05,7.05,0,0,0,6.1,3.5,1,1,0,0,1,1,1,1.1,1.1,0,0,1-1,1.1Z" style="fill:#f54ea2"/><path d="M65.5,43.5A5.08,5.08,0,0,0,69.1,42L76,35.1h0a2.77,2.77,0,0,0,1.3.3,2.72,2.72,0,0,0,2.1-.9,2.88,2.88,0,0,0,.9-2.1,2.72,2.72,0,0,0-.9-2.1,2.88,2.88,0,0,0-2.1-.9,2.72,2.72,0,0,0-2.1.9,2.88,2.88,0,0,0-.9,2.1,2.77,2.77,0,0,0,.3,1.3h0l-6.9,6.9a2.88,2.88,0,0,1-2.1.9H53v2ZM77.3,31.4a.87.87,0,0,1,.9.6,1,1,0,0,1-1.3,1.3,1,1,0,0,1-.6-.9,1,1,0,0,1,1-1Z"/><path d="M74.5,59.7a3.15,3.15,0,0,0,2,1.9,3,3,0,0,0,2.7-.5,3,3,0,0,0,1.2-2.4,3.13,3.13,0,0,0-1.2-2.4,3.27,3.27,0,0,0-2.7-.5,3.15,3.15,0,0,0-2,1.9H53v2Zm2.8-2h0a.87.87,0,0,1,.9.6,1,1,0,0,1-1.3,1.3,1,1,0,0,1-.6-.9,1,1,0,0,1,1-1Z"/><path d="M62.3,67.8a3.15,3.15,0,0,0,2,1.9,3,3,0,0,0,2.7-.5,3,3,0,0,0,0-4.8,3.27,3.27,0,0,0-2.7-.5,3.15,3.15,0,0,0-2,1.9H53v2Zm2.9-2a.87.87,0,0,1,.9.6,1,1,0,0,1-1.3,1.3,1,1,0,0,1-.6-.9,1,1,0,0,1,1-1Z"/><path d="M58.3,19.2a3.15,3.15,0,0,0,2,1.9,3,3,0,0,0,2.7-.5,3,3,0,0,0,0-4.8,3.27,3.27,0,0,0-2.7-.5,3.15,3.15,0,0,0-2,1.9H53v2Zm2.8-2a.87.87,0,0,1,.9.6,1,1,0,0,1-1.3,1.3,1,1,0,0,1-.6-.9,1,1,0,0,1,1-1Z"/><path d="M62.3,51.6a3.15,3.15,0,0,0,2,1.9A3,3,0,0,0,67,53a3,3,0,0,0,0-4.8,3.27,3.27,0,0,0-2.7-.5,3.15,3.15,0,0,0-2,1.9H53v2Zm2.9-2a.87.87,0,0,1,.9.6,1,1,0,0,1-1.3,1.3,1,1,0,0,1-.6-.9.94.94,0,0,1,1-1Z"/><path d="M62.3,27.3a3.15,3.15,0,0,0,2,1.9,3,3,0,0,0,2.7-.5,3,3,0,0,0,0-4.8,3.27,3.27,0,0,0-2.7-.5,3.15,3.15,0,0,0-2,1.9H53v2Zm2.9-2a.87.87,0,0,1,.9.6,1,1,0,0,1-1.3,1.3,1,1,0,0,1-.6-.9.94.94,0,0,1,1-1Z"/><path d="M59.1,75.9a1,1,0,0,0,0-2H53v2Z"/><path d="M67.2,35.4a1,1,0,0,0,0-2H53v2Z"/><path d="M53,11.1h6.8a7.12,7.12,0,0,1,5,2.1l3.4,3.4h0a9.09,9.09,0,0,0,6.4,2.7h3.9a3.15,3.15,0,0,0,2,1.9,3,3,0,0,0,2.7-.5,3,3,0,0,0,0-4.8,3.27,3.27,0,0,0-2.7-.5,3.15,3.15,0,0,0-2,1.9H74.6a7.12,7.12,0,0,1-5-2.1l-3.4-3.4h0a9.09,9.09,0,0,0-6.4-2.7H52.9a3.4,3.4,0,0,1,.1,1Zm28.4,6.1a.87.87,0,0,1,.9.6A1,1,0,0,1,81,19.1a1,1,0,0,1-.6-.9.94.94,0,0,1,1-1Z"/><path d="M81.4,71.9a2.72,2.72,0,0,0-1.7.6A3.27,3.27,0,0,0,78.6,74H74.7a9.09,9.09,0,0,0-6.4,2.7l-3.4,3.4h0a7.12,7.12,0,0,1-5,2.1H53v1c0,.3-.1.7-.1,1h6.9a9.09,9.09,0,0,0,6.4-2.7l3.4-3.4h0a7.12,7.12,0,0,1,5-2.1h3.9a3.17,3.17,0,0,0,1.4,1.6,2.63,2.63,0,0,0,2.1.3,3.22,3.22,0,0,0,1.8-1.2,3.14,3.14,0,0,0,.5-2.1,3,3,0,0,0-1-1.9,2.36,2.36,0,0,0-1.9-.8Zm0,4h0a.87.87,0,0,1-.9-.6,1.09,1.09,0,0,1,.2-1.1.91.91,0,0,1,1.1-.2,1,1,0,0,1,.6.9,1,1,0,0,1-1,1Z"/></svg>