<svg id="Layer_1" data-name="Layer 1" xmlns="http://www.w3.org/2000/svg" viewBox="0 0 73.96 88.95" width="84" height="68"><path d="M42.9,2a8.2,8.2,0,0,0-8.1,8.1,12.29,12.29,0,0,0-10,5.1,11.92,11.92,0,0,0-1.4,11.1c-.3,0-.5-.1-.8-.1a8.06,8.06,0,0,0-5.8,13.7,12,12,0,0,0-1.8,20,8.08,8.08,0,0,0,.9,7.4,8,8,0,0,0,6.7,3.4A12.29,12.29,0,0,0,34.8,82.9a7.87,7.87,0,0,0,4.1,7,8.34,8.34,0,0,0,8.1,0,8.07,8.07,0,0,0,4.1-7V9.9a8.23,8.23,0,0,0-2.4-5.7A8.92,8.92,0,0,0,42.9,2ZM22.6,59.7a1,1,0,0,1,0-2,6.92,6.92,0,0,0,4.7-1.8,6.8,6.8,0,0,0,2.3-4.4,9.25,9.25,0,0,1-7.1-5,8.79,8.79,0,0,1,.3-8.6,1,1,0,0,1,1.8,1,7,7,0,0,0-.4,6.3,6.88,6.88,0,0,0,4.7,4.1,7.3,7.3,0,0,0,6.2-1.2,7.16,7.16,0,0,0,2.8-5.6,1,1,0,0,1,2,0,9.11,9.11,0,0,1-8.2,9,9.3,9.3,0,0,1-2.9,5.8A9.11,9.11,0,0,1,22.6,59.7ZM38.8,80a1,1,0,0,1-1-1,7.17,7.17,0,0,0-7.1-7.1,1,1,0,0,1-1-1,1.08,1.08,0,0,1,1-1A9.21,9.21,0,0,1,39.8,79a.89.89,0,0,1-.3.7A.79.79,0,0,1,38.8,80Zm.5-10.4a.87.87,0,0,1-.5.1,1,1,0,0,1-.5-1.9,7.07,7.07,0,0,0,0-12.2,1.46,1.46,0,0,1-.5-.6,1.12,1.12,0,0,1,.1-.8,1.46,1.46,0,0,1,.6-.5,1.12,1.12,0,0,1,.8.1,9.08,9.08,0,0,1,0,15.8Zm3.6-38.2a7.17,7.17,0,0,0-7.1,7.1,1,1,0,0,1-2,0,9,9,0,0,1,4-7.5v-.6a7.17,7.17,0,0,0-7.1-7.1,1,1,0,0,1,0-2A9.27,9.27,0,0,1,37,23.8,9,9,0,0,1,39.8,30a8.22,8.22,0,0,1,3.1-.6,1,1,0,0,1,1,1A1.08,1.08,0,0,1,42.9,31.4Zm0-12.2A8.91,8.91,0,0,1,35,14.6a1,1,0,1,1,1.8-1,7.05,7.05,0,0,0,6.1,3.5,1,1,0,0,1,1,1A1.1,1.1,0,0,1,42.9,19.2Z" transform="translate(-10.44 -2)" style="fill:#f54ea2"/><path d="M65.5,43.5A5.07,5.07,0,0,0,69.1,42L76,35.1h0a2.79,2.79,0,0,0,1.3.3,2.73,2.73,0,0,0,2.1-.9,2.89,2.89,0,0,0,.9-2.1,2.73,2.73,0,0,0-.9-2.1,2.89,2.89,0,0,0-2.1-.9,2.73,2.73,0,0,0-2.1.9,2.89,2.89,0,0,0-.9,2.1,2.79,2.79,0,0,0,.3,1.3h0l-6.9,6.9a2.89,2.89,0,0,1-2.1.9H53v2ZM77.3,31.4a.88.88,0,0,1,.9.6,1,1,0,0,1-.56,1.3,1,1,0,0,1-.74,0,1,1,0,0,1,.4-1.9Z" transform="translate(-10.44 -2)" style="fill:#df4090"/><path d="M74.5,59.7a3.15,3.15,0,0,0,2,1.9,3,3,0,0,0,3.9-2.9,3.13,3.13,0,0,0-1.2-2.4,3.28,3.28,0,0,0-2.7-.5,3.15,3.15,0,0,0-2,1.9H53v2Zm2.8-2h0a.88.88,0,0,1,.9.6,1,1,0,0,1-.56,1.3,1,1,0,0,1-.74,0,1,1,0,0,1,.4-1.9Z" transform="translate(-10.44 -2)" style="fill:#df4090"/><path d="M62.3,67.8a3.15,3.15,0,0,0,2,1.9A3,3,0,0,0,67.6,65a2.84,2.84,0,0,0-.6-.6,3.28,3.28,0,0,0-2.7-.5,3.15,3.15,0,0,0-2,1.9H53v2Zm2.9-2a.88.88,0,0,1,.9.6,1,1,0,0,1-.56,1.3,1,1,0,0,1-.74,0,1,1,0,0,1,.4-1.9Z" transform="translate(-10.44 -2)" style="fill:#df4090"/><path d="M58.3,19.2a3.15,3.15,0,0,0,2,1.9,3,3,0,0,0,3.3-4.7,2.84,2.84,0,0,0-.6-.6,3.28,3.28,0,0,0-2.7-.5,3.15,3.15,0,0,0-2,1.9H53v2Zm2.8-2a.88.88,0,0,1,.9.6,1,1,0,0,1-.56,1.3,1,1,0,0,1-.74,0,1,1,0,0,1,.4-1.9Z" transform="translate(-10.44 -2)" style="fill:#df4090"/><path d="M62.3,51.6a3.15,3.15,0,0,0,2,1.9,3,3,0,0,0,3.3-4.7,2.84,2.84,0,0,0-.6-.6,3.28,3.28,0,0,0-2.7-.5,3.15,3.15,0,0,0-2,1.9H53v2Zm2.9-2a.88.88,0,0,1,.9.6,1,1,0,0,1-.56,1.3,1,1,0,0,1-.74,0,1,1,0,0,1-.6-.9.94.94,0,0,1,.88-1Z" transform="translate(-10.44 -2)" style="fill:#df4090"/><path d="M62.3,27.3a3.15,3.15,0,0,0,2,1.9,3,3,0,0,0,3.3-4.7,2.84,2.84,0,0,0-.6-.6,3.28,3.28,0,0,0-2.7-.5,3.15,3.15,0,0,0-2,1.9H53v2Zm2.9-2a.88.88,0,0,1,.9.6,1,1,0,0,1-.56,1.3,1,1,0,0,1-.74,0,1,1,0,0,1-.6-.9.94.94,0,0,1,.88-1Z" transform="translate(-10.44 -2)" style="fill:#df4090"/><path d="M59.1,75.9a1,1,0,0,0,0-2H53v2Z" transform="translate(-10.44 -2)" style="fill:#df4090"/><path d="M67.2,35.4a1,1,0,0,0,0-2H53v2Z" transform="translate(-10.44 -2)" style="fill:#df4090"/><path d="M53,11.1h6.8a7.11,7.11,0,0,1,5,2.1l3.4,3.4h0a9.1,9.1,0,0,0,6.4,2.7h3.9a3.15,3.15,0,0,0,2,1.9,3,3,0,0,0,3.3-4.7,2.84,2.84,0,0,0-.6-.6,3.28,3.28,0,0,0-2.7-.5,3.15,3.15,0,0,0-2,1.9H74.6a7.11,7.11,0,0,1-5-2.1l-3.4-3.4h0a9.1,9.1,0,0,0-6.4-2.7H52.9a3.37,3.37,0,0,1,.1,1Zm28.4,6.1a.88.88,0,0,1,.9.6,1,1,0,0,1-.56,1.3,1,1,0,0,1-.74,0,1,1,0,0,1-.6-.9.94.94,0,0,1,.88-1Z" transform="translate(-10.44 -2)" style="fill:#df4090"/><path d="M81.4,71.9a2.69,2.69,0,0,0-1.7.6A3.24,3.24,0,0,0,78.6,74H74.7a9.1,9.1,0,0,0-6.4,2.7l-3.4,3.4h0a7.11,7.11,0,0,1-5,2.1H53v1c0,.3-.1.7-.1,1h6.9a9.1,9.1,0,0,0,6.4-2.7l3.4-3.4h0a7.11,7.11,0,0,1,5-2.1h3.9a3.17,3.17,0,0,0,1.4,1.6,2.63,2.63,0,0,0,2.1.3,3.19,3.19,0,0,0,1.8-1.2,3.12,3.12,0,0,0,.5-2.1,3,3,0,0,0-1-1.9A2.37,2.37,0,0,0,81.4,71.9Zm0,4h0a.88.88,0,0,1-.9-.6,1.1,1.1,0,0,1,.2-1.1.92.92,0,0,1,1.1-.2,1,1,0,0,1-.4,1.9Z" transform="translate(-10.44 -2)" style="fill:#df4090"/></svg>