<svg id="Layer_1" data-name="Layer 1" xmlns="http://www.w3.org/2000/svg" viewBox="0 0 346 275.3" width="346" height="285"><path d="M173,4.85a27.89,27.89,0,0,0-27.84,27.88,28.87,28.87,0,0,0,.22,3.36l-4,.93L142,39.9l1.14-.25-1.4,1.16,1.37,1.58.57.69.17-.16,1.74,1.18,1.18-1.79h.12a27.77,27.77,0,0,0,50.84,2.94l78.52,78.51-7.34-1.29a1.93,1.93,0,0,0-.85,3.75h.2L282,128.67h.38a1.92,1.92,0,0,0,2.19-1.61,1.9,1.9,0,0,0-.42-1.5h0l-4.3-12.8a1.93,1.93,0,0,0-3.63,1.23l2,6.06-78.06-78-1.6,1.59A27.82,27.82,0,0,0,173,4.85Z" transform="translate(0 -4.85)" style="fill:#ff9e2b"/><path d="M173,12.54A20.2,20.2,0,1,1,152.8,32.73h0a20.1,20.1,0,0,1,20-20.19H173Z" transform="translate(0 -4.85)" style="fill:#d77d13"/><polygon points="138.45 32.79 132.66 34.11 133.35 37.01 139.13 35.68 138.45 32.79" style="fill:#ff9e2b"/><polygon points="129.77 34.76 123.97 36.1 124.66 38.99 130.45 37.67 129.77 34.76" style="fill:#ff9e2b"/><polygon points="121.09 36.76 115.3 38.08 115.98 40.98 121.77 39.65 121.09 36.76" style="fill:#ff9e2b"/><polygon points="139.5 37.92 134.98 41.81 136.95 44.04 141.25 40.31 138.13 44.99 140.61 46.64 141.73 44.95 143.73 45.89 146.25 40.54 143.59 39.24 142.78 40.95 141.43 40.05 141.38 40.1 139.5 37.92" style="fill:#ff9e2b"/><polygon points="112.39 38.74 106.61 40.08 107.29 42.97 113.08 41.64 112.39 38.74" style="fill:#ff9e2b"/><path d="M8,45.2a8,8,0,0,0-8,7.95H0V66.2a8,8,0,0,0,7.94,8H47.47a8,8,0,0,0,8.07-7.88V63l.63,1.28,2.1-1,.11.09.21-.25.25-.12v-.09l1.54-1.78-2.27-2,2.94-.68-.69-2.89-4.81,1.11V53.24a8,8,0,0,0-7.94-8H8Z" transform="translate(0 -4.85)" style="fill:#ff9e2b"/><polygon points="103.72 40.76 97.93 42.07 98.62 44.96 104.4 43.66 103.72 40.76" style="fill:#ff9e2b"/><polygon points="95.03 42.74 89.24 44.04 89.9 46.95 95.72 45.64 95.03 42.74" style="fill:#ff9e2b"/><polygon points="132.75 43.74 128.24 47.63 130.2 49.87 134.68 46.01 132.75 43.74" style="fill:#ff9e2b"/><rect x="80.82" y="50.2" width="5.94" height="2.97" transform="translate(-9.32 14.85) rotate(-12.71)" style="fill:#ff9e2b"/><rect x="72.13" y="52.18" width="5.93" height="2.97" transform="translate(-9.97 13) rotate(-12.72)" style="fill:#ff9e2b"/><polygon points="139.79 47.31 138.93 49.1 137.24 52.68 139.93 53.95 142.46 48.59 139.79 47.31" style="fill:#ff9e2b"/><polygon points="138.93 49.1 136.46 47.45 133.18 52.36 135.64 54.04 138.93 49.1" style="fill:#ff9e2b"/><polygon points="68.99 48.7 63.2 50.04 63.86 52.93 69.63 51.61 68.99 48.7" style="fill:#ff9e2b"/><polygon points="126 49.55 121.52 53.44 123.44 55.69 127.95 51.82 126 49.55" style="fill:#ff9e2b"/><polygon points="131.51 54.83 128.21 59.78 130.67 61.41 133.97 56.5 131.51 54.83" style="fill:#ff9e2b"/><polygon points="135.99 55.36 133.46 60.74 136.12 62.02 138.66 56.65 135.99 55.36" style="fill:#ff9e2b"/><polygon points="119.27 55.4 114.75 59.26 116.71 61.52 121.2 57.65 119.27 55.4" style="fill:#ff9e2b"/><rect x="62.28" y="63.16" width="2.98" height="5.95" transform="translate(-27.99 65.81) rotate(-48.87)" style="fill:#ff9e2b"/><polygon points="60.1 60.79 57.44 62.1 60.08 67.43 62.72 66.13 60.1 60.79" style="fill:#ff9e2b"/><polygon points="112.52 61.22 108.01 65.08 109.97 67.35 114.45 63.46 112.52 61.22" style="fill:#ff9e2b"/><polygon points="126.54 62.24 123.24 67.18 125.71 68.82 128.99 63.89 126.54 62.24" style="fill:#ff9e2b"/><polygon points="132.19 63.43 129.66 68.79 132.33 70.07 134.88 64.71 132.19 63.43" style="fill:#ff9e2b"/><rect x="68.98" y="69.04" width="2.98" height="5.95" transform="translate(-30.13 72.75) rotate(-48.8)" style="fill:#ff9e2b"/><polygon points="105.76 67.04 101.28 70.92 103.21 73.17 107.73 69.27 105.76 67.04" style="fill:#ff9e2b"/><rect x="62.53" y="73.99" width="2.97" height="5.94" transform="translate(-27.33 31.16) rotate(-26.1)" style="fill:#ff9e2b"/><polygon points="121.57 69.64 118.28 74.55 120.74 76.23 124.03 71.29 121.57 69.64" style="fill:#ff9e2b"/><polygon points="75.9 69.97 73.94 72.2 78.43 76.12 80.39 73.87 75.9 69.97" style="fill:#ff9e2b"/><polygon points="128.38 71.49 125.85 76.85 128.52 78.13 131.07 72.77 128.38 71.49" style="fill:#ff9e2b"/><polygon points="99.03 72.85 94.53 76.73 96.47 78.98 100.96 75.1 99.03 72.85" style="fill:#ff9e2b"/><polygon points="82.61 75.83 80.64 78.08 85.13 81.98 87.08 79.75 82.61 75.83" style="fill:#ff9e2b"/><polygon points="67.97 76.8 65.29 78.11 67.91 83.44 70.57 82.14 67.97 76.8" style="fill:#ff9e2b"/><polygon points="116.6 77.03 113.3 81.96 115.77 83.61 119.08 78.7 116.6 77.03" style="fill:#ff9e2b"/><polygon points="92.28 78.67 87.78 82.56 88.16 83.01 87.35 83.94 91.82 87.86 93.79 85.63 91.28 83.45 94.21 80.91 92.28 78.67" style="fill:#ff9e2b"/><polygon points="124.58 79.54 122.05 84.91 124.72 86.18 127.28 80.82 124.58 79.54" style="fill:#ff9e2b"/><polygon points="111.63 84.43 108.34 89.37 110.82 91.01 114.1 86.08 111.63 84.43" style="fill:#ff9e2b"/><polygon points="85.53 84.49 81.04 88.38 82.97 90.62 87.49 86.73 85.53 84.49" style="fill:#ff9e2b"/><polygon points="71.91 84.8 69.24 86.1 71.85 91.45 74.52 90.1 71.91 84.8" style="fill:#ff9e2b"/><polygon points="96 87.58 94.04 89.83 98.53 93.74 100.48 91.51 96 87.58" style="fill:#ff9e2b"/><polygon points="120.77 87.61 118.25 92.97 120.94 94.25 123.47 88.89 120.77 87.61" style="fill:#ff9e2b"/><polygon points="78.79 90.31 75.85 92.84 75.82 92.78 73.16 94.08 75.77 99.41 78.43 98.1 77.21 95.61 80.73 92.58 78.79 90.31" style="fill:#ff9e2b"/><polygon points="106.67 91.84 104.52 95.04 102.7 93.46 100.74 95.7 105.22 99.62 107.18 97.37 106.79 97.02 109.14 93.49 106.67 91.84" style="fill:#ff9e2b"/><polygon points="116.98 95.67 114.45 101.03 117.15 102.31 119.67 96.92 116.98 95.67" style="fill:#ff9e2b"/><polygon points="72.05 96.13 67.54 100.01 69.49 102.25 73.98 98.39 72.05 96.13" style="fill:#ff9e2b"/><path d="M8,103.7a8,8,0,0,0-8,8H0v13a8,8,0,0,0,8,8h39.5a8,8,0,0,0,8-8h0v-3.89l1.77,2.49,2.44-1.73-1.27-1.78,1.48.35.62-2.58L58,117l2.46-2.13-1.93-2.23-3,2.62v-3.55a8,8,0,0,0-7.94-8Z" transform="translate(0 -4.85)" style="fill:#ff9e2b"/><polygon points="101.71 99.22 98.4 104.15 100.88 105.8 104.17 100.9 101.71 99.22" style="fill:#ff9e2b"/><polygon points="109.39 99.33 107.43 101.58 111.92 105.48 112.83 104.44 110.64 109.09 113.34 110.37 114.54 107.8 118.62 111.36 120.57 109.13 116.09 105.2 115.38 106.02 115.86 104.98 113.37 103.83 113.89 103.24 109.39 99.33" style="fill:#ff9e2b"/><polygon points="79.73 100.79 77.09 102.08 79.71 107.42 82.38 106.11 79.73 100.79" style="fill:#ff9e2b"/><polygon points="65.29 101.97 60.81 105.83 62.73 108.1 67.25 104.21 65.29 101.97" style="fill:#ff9e2b"/><rect x="93.36" y="113.27" width="5.94" height="2.97" transform="translate(-52.57 126.55) rotate(-56.37)" style="fill:#ff9e2b"/><polygon points="83.69 108.79 81.01 110.09 83.63 115.43 86.3 114.12 83.69 108.79" style="fill:#ff9e2b"/><path d="M173,114.63a27.9,27.9,0,0,0-27.1,21.54l-3-2.62-1.9,2.19,2.35,2-2.86-.68-.64,2.57,5.17,1.28.31-1.26c-.07.69-.09,1.38-.11,2L144,142.93l-.81-2-5.53,2.14,1,2.74,4-1.55-1.23,1.24,2.13,2,1.86-1.66a27.83,27.83,0,0,0,55.32-.8H276l-5.88,3.25a1.92,1.92,0,1,0,1.18,3.65l.1,0a1.76,1.76,0,0,0,.39-.19l.17-.1,12.18-6.7h0l.17-.08h0l.17-.11a1.93,1.93,0,0,0-.56-3.53h0l-11.36-7.29a1.88,1.88,0,0,0-1-.26,1.92,1.92,0,0,0-1,3.5L276.6,141H200.86A27.87,27.87,0,0,0,173,114.63Z" transform="translate(0 -4.85)" style="fill:#ff9e2b"/><rect x="122.57" y="116.02" width="2.98" height="5.95" transform="translate(-47.16 129.43) rotate(-48.91)" style="fill:#ff9e2b"/><polygon points="109.39 111.78 106.85 117.15 109.53 118.43 112.07 113.03 109.39 111.78" style="fill:#ff9e2b"/><polygon points="63.08 113.38 62.45 115.97 67.62 117.24 68.25 114.65 63.08 113.38" style="fill:#ff9e2b"/><polygon points="91.78 114.04 88.59 118.77 87.61 116.78 84.93 118.09 85.99 120.25 85.67 121.63 86.51 121.84 83.52 126.35 85.98 127.98 89.28 123.09 88.84 122.79 89.33 122.55 90.8 122.91 91.46 120.34 91.18 120.27 94.24 115.68 91.78 114.04" style="fill:#ff9e2b"/><polygon points="70.82 115.28 70.18 117.86 75.34 119.12 75.96 116.52 70.82 115.28" style="fill:#ff9e2b"/><polygon points="129.49 116.96 127.53 119.19 132.01 123.12 133.97 120.86 129.49 116.96" style="fill:#ff9e2b"/><rect x="79.49" y="121.29" width="2.66" height="5.31" transform="translate(-58.62 168.62) rotate(-76.45)" style="fill:#ff9e2b"/><path d="M173,122.28a20.12,20.12,0,1,1-.07,0Z" transform="translate(0 -4.85)" style="fill:#d77d13"/><polygon points="88.77 119.14 90 119.97 89.07 119.74 88.77 119.14" style="fill:#ff9e2b"/><polygon points="61.4 119.17 58.99 120.89 62.45 125.72 64.88 124.03 61.4 119.17" style="fill:#ff9e2b"/><polygon points="105.59 119.84 103.91 123.38 101.77 122.85 101.13 125.44 106.3 126.68 106.93 124.11 106.86 124.09 108.26 121.1 105.59 119.84" style="fill:#ff9e2b"/><polygon points="94.01 120.95 93.39 123.54 98.56 124.78 99.18 122.23 94.01 120.95" style="fill:#ff9e2b"/><polygon points="136.21 122.82 134.25 125.08 138.71 128.98 140.67 126.74 136.21 122.82" style="fill:#ff9e2b"/><rect x="290.51" y="123.11" width="55.49" height="28.99" rx="8" style="fill:#14b191"/><polygon points="109.5 124.73 108.86 127.31 114.02 128.59 114.64 126 109.5 124.73" style="fill:#ff9e2b"/><polygon points="91.54 124.75 88.87 126.09 91.48 131.4 94.15 130.09 91.54 124.75" style="fill:#ff9e2b"/><rect x="65.61" y="131.59" width="2.97" height="5.94" transform="translate(-65.8 59.38) rotate(-35.61)" style="fill:#ff9e2b"/><polygon points="117.23 126.63 116.6 129.22 121.77 130.46 122.39 127.9 117.23 126.63" style="fill:#ff9e2b"/><polygon points="101.79 127.9 99.23 133.27 101.93 134.55 104.45 129.16 101.79 127.9" style="fill:#ff9e2b"/><polygon points="124.97 128.53 124.35 131.12 129.49 132.36 130.13 129.78 124.97 128.53" style="fill:#ff9e2b"/><polygon points="81.83 128.82 78.54 133.75 81.01 135.4 84.31 130.46 81.83 128.82" style="fill:#ff9e2b"/><polygon points="132.69 130.44 132.06 132.98 137.24 134.27 137.85 131.68 132.69 130.44" style="fill:#ff9e2b"/><polygon points="95.45 132.76 92.79 134.06 95.42 139.4 96.65 138.8 95.45 141.32 96.87 142.01 96.74 142.07 99.35 147.4 102.01 146.1 99.39 140.77 98.87 141.02 100.66 137.2 97.98 135.96 97.53 136.93 95.45 132.76" style="fill:#ff9e2b"/><polygon points="71.76 133.7 69.35 135.4 72.78 140.25 75.19 138.52 71.76 133.7" style="fill:#ff9e2b"/><polygon points="76.86 136.19 73.58 141.13 75.15 142.2 74.52 142.67 77.95 147.5 80.36 145.79 77.12 141.19 79.34 137.87 76.86 136.19" style="fill:#ff9e2b"/><polygon points="134.81 139.34 129.28 141.48 130.33 144.26 135.9 142.12 134.81 139.34" style="fill:#ff9e2b"/><polygon points="126.51 142.53 120.97 144.65 122.03 147.44 127.58 145.31 126.51 142.53" style="fill:#ff9e2b"/><polygon points="139.42 142.84 135.25 147.09 137.35 149.17 141.52 144.93 139.42 142.84" style="fill:#ff9e2b"/><polygon points="71.91 143.6 68.61 148.53 71.08 150.19 74.38 145.24 71.91 143.6" style="fill:#ff9e2b"/><polygon points="94.18 144.03 91.66 149.39 94.32 150.67 96.88 145.27 94.18 144.03" style="fill:#ff9e2b"/><polygon points="118.19 145.73 112.65 147.86 113.7 150.61 119.24 148.49 118.19 145.73" style="fill:#ff9e2b"/><polygon points="82.09 148.2 79.68 149.94 83.14 154.76 85.55 153.03 82.09 148.2" style="fill:#ff9e2b"/><polygon points="103.32 148.77 100.66 150.07 103.29 155.4 105.96 154.07 105.76 153.67 110.93 151.69 109.88 148.91 104.42 150.99 103.32 148.77" style="fill:#ff9e2b"/><polygon points="133.15 149.19 128.97 153.41 131.09 155.51 135.28 151.26 133.15 149.19" style="fill:#ff9e2b"/><polygon points="66.94 151.01 63.64 155.94 66.12 157.59 69.4 152.65 66.94 151.01" style="fill:#ff9e2b"/><polygon points="90.39 152.08 88.18 156.74 87.27 155.43 84.84 157.17 87.16 160.41 86.57 160.14 84.05 165.51 86.74 166.75 89.28 161.39 89.21 161.36 90.72 160.29 90.24 159.6 94.29 158.07 93.24 155.29 91.91 155.81 93.07 153.33 90.39 152.08" style="fill:#ff9e2b"/><polygon points="101.56 152.08 96 154.21 97.08 157 102.61 154.87 101.56 152.08" style="fill:#ff9e2b"/><path d="M282.56,157.33H282l-13.69,2.4h-.2a1.92,1.92,0,0,0,.86,3.74l7.35-1.29-78.15,78.17a27.78,27.78,0,0,0-51.21,2l-.42-.86-1,.47-1.4-1.92-2.19,1.56-1.46-1.11-1.84,2.33,4.71,3.61h0l-.36,2.69,2.24.31c-.09.91-.13,1.83-.13,2.74a27.85,27.85,0,1,0,54.14-9l.85.83,78.13-78.09-2,6.06a1.92,1.92,0,0,0,3.62,1.24l4.34-12.79h0a1.92,1.92,0,0,0-.3-2.71,2,2,0,0,0-1.3-.43Z" transform="translate(0 -4.85)" style="fill:#ff9e2b"/><polygon points="126.9 155.55 122.72 159.78 124.86 161.85 128.99 157.62 126.9 155.55" style="fill:#ff9e2b"/><polygon points="107.26 156.74 104.59 158.07 107.2 163.38 109.87 162.08 107.26 156.74" style="fill:#ff9e2b"/><path d="M8,162.19a8,8,0,0,0-8,8H0v13a8,8,0,0,0,8,8h39.5a8,8,0,0,0,8.07-7.88v-4.65l3.2,2.51,1.81-2.34-2.61-2,3-1.2-1-2.73-1.18.44.68-1L57,170.65l-1.52,2.26v-2.7a8,8,0,0,0-7.93-8H8Z" transform="translate(0 -4.85)" style="fill:#ff9e2b"/><polygon points="61.97 158.39 58.69 163.33 61.15 165.01 64.44 160.06 61.97 158.39" style="fill:#ff9e2b"/><polygon points="84.9 158.47 79.37 160.59 80.42 163.38 85.98 161.26 84.9 158.47" style="fill:#ff9e2b"/><polygon points="76.58 161.67 71.06 163.78 72.11 166.55 77.66 164.43 76.58 161.67" style="fill:#ff9e2b"/><polygon points="120.65 161.88 116.48 166.11 118.58 168.21 122.76 163.98 120.65 161.88" style="fill:#ff9e2b"/><polygon points="92.45 162.69 90.03 164.43 93.48 169.26 95.88 167.52 92.45 162.69" style="fill:#ff9e2b"/><polygon points="111.18 164.74 108.51 166.04 111.15 171.38 111.4 171.27 110.21 172.47 112.34 174.53 112.57 174.3 115.07 179.39 117.73 178.09 115.12 172.74 113.16 173.7 116.51 170.31 114.38 168.23 113.39 169.23 111.18 164.74" style="fill:#ff9e2b"/><polygon points="68.27 164.87 62.73 166.99 63.78 169.74 69.35 167.63 68.27 164.87" style="fill:#ff9e2b"/><polygon points="82.77 168.21 80.25 173.57 82.94 174.81 85.47 169.45 82.77 168.21" style="fill:#ff9e2b"/><polygon points="97.62 169.97 95.2 171.67 98.64 176.52 101.05 174.78 97.62 169.97" style="fill:#ff9e2b"/><polygon points="108.14 174.56 103.97 178.79 106.08 180.89 110.24 176.66 108.14 174.56" style="fill:#ff9e2b"/><polygon points="62.91 175.81 61.09 178.17 65.8 181.79 67.59 179.44 62.91 175.81" style="fill:#ff9e2b"/><polygon points="78.96 176.24 76.45 181.62 79.14 182.88 81.66 177.51 78.96 176.24" style="fill:#ff9e2b"/><polygon points="102.78 177.21 100.36 178.92 101.82 180.96 97.7 185.14 99.82 187.21 103.58 183.42 103.83 183.76 106.23 182.05 102.78 177.21" style="fill:#ff9e2b"/><polygon points="119.04 180.74 116.37 182.05 119.01 187.4 121.65 186.08 119.04 180.74" style="fill:#ff9e2b"/><rect x="69.89" y="186.12" width="2.98" height="5.95" transform="translate(-121.95 125.28) rotate(-52.36)" style="fill:#ff9e2b"/><polygon points="75.17 184.3 72.64 189.69 75.33 190.93 75.94 189.64 79.91 192.69 81.72 190.34 77.25 186.89 77.86 185.57 75.17 184.3" style="fill:#ff9e2b"/><polygon points="107.95 184.47 105.53 186.19 109 191.01 111.4 189.29 107.95 184.47" style="fill:#ff9e2b"/><polygon points="95.63 187.28 91.46 191.51 93.59 193.58 97.75 189.34 95.63 187.28" style="fill:#ff9e2b"/><polygon points="122.97 188.72 120.32 190.06 122.92 195.36 125.59 194.06 122.97 188.72" style="fill:#ff9e2b"/><polygon points="113.14 191.73 110.72 193.44 114.16 198.28 116.56 196.56 113.14 191.73" style="fill:#ff9e2b"/><polygon points="84.04 192.16 82.27 194.49 85.8 197.23 85.22 197.83 87.31 199.93 91.48 195.71 89.38 193.6 87.9 195.1 84.04 192.16" style="fill:#ff9e2b"/><polygon points="71.39 192.35 68.83 197.75 71.53 198.99 74.06 193.63 71.39 192.35" style="fill:#ff9e2b"/><polygon points="126.9 196.73 124.24 198.03 126.83 203.36 129.51 202.06 126.9 196.73" style="fill:#ff9e2b"/><rect x="90.63" y="202.47" width="2.97" height="5.94" transform="translate(-126.78 147.94) rotate(-52.33)" style="fill:#ff9e2b"/><polygon points="118.3 198.97 115.89 200.7 119.33 205.52 121.76 203.82 118.3 198.97" style="fill:#ff9e2b"/><polygon points="83.1 199.96 78.93 204.19 81.06 206.26 85.23 202.04 83.1 199.96" style="fill:#ff9e2b"/><polygon points="67.59 200.41 65.03 205.81 67.73 207.06 70.26 201.7 67.59 200.41" style="fill:#ff9e2b"/><polygon points="98.18 203.02 96.36 205.38 101.05 209.02 102.87 206.66 98.18 203.02" style="fill:#ff9e2b"/><rect x="129.33" y="209.94" width="2.97" height="5.94" transform="translate(-80.33 74.41) rotate(-26.1)" style="fill:#ff9e2b"/><polygon points="123.46 206.23 121.06 207.97 124.51 212.78 126.93 211.06 123.46 206.23" style="fill:#ff9e2b"/><polygon points="76.86 206.29 72.7 210.52 74.8 212.62 78.96 208.38 76.86 206.29" style="fill:#ff9e2b"/><polygon points="63.78 208.47 61.23 213.87 63.93 215.11 66.45 209.75 63.78 208.47" style="fill:#ff9e2b"/><rect x="105.18" y="213.37" width="2.97" height="5.95" transform="translate(-129.76 163.71) rotate(-52.33)" style="fill:#ff9e2b"/><polygon points="70.59 212.64 66.45 216.88 68.55 218.94 72.72 214.71 70.59 212.64" style="fill:#ff9e2b"/><rect x="133.26" y="217.92" width="2.97" height="5.94" transform="translate(-83.34 76.8) rotate(-26.06)" style="fill:#ff9e2b"/><polygon points="128.65 213.47 126.22 215.2 129.68 220.06 132.08 218.32 128.65 213.47" style="fill:#ff9e2b"/><polygon points="112.28 213.92 110.46 216.25 115.18 219.88 116.97 217.52 112.28 213.92" style="fill:#ff9e2b"/><path d="M8,220.7a8,8,0,0,0-8,8v13a8,8,0,0,0,8,8h39.5a8,8,0,0,0,8.07-7.88v-4.72l5.16.68.41-2.92-2.93-.42,2-2.11-1.41-1.37.08-.16-.43-.2-.34-.34-.12.12-1.81-.85L55.48,231v-2.2a8,8,0,0,0-7.88-8.05h-.13Z" transform="translate(0 -4.85)" style="fill:#ff9e2b"/><polygon points="59.99 216.53 57.45 221.92 60.12 223.18 62.64 217.81 59.99 216.53" style="fill:#ff9e2b"/><polygon points="64.36 218.97 60.18 223.24 62.31 225.3 66.48 221.08 64.36 218.97" style="fill:#ff9e2b"/><rect x="119.28" y="224.2" width="2.98" height="5.95" transform="translate(-132.87 179.22) rotate(-52.36)" style="fill:#ff9e2b"/><polygon points="138.67 220.7 136.03 222.03 138.65 227.35 141.31 226.03 138.67 220.7" style="fill:#ff9e2b"/><polygon points="133.82 220.74 131.42 222.46 134.85 227.29 137.25 225.59 133.82 220.74" style="fill:#ff9e2b"/><polygon points="126.39 224.79 124.57 227.16 129.28 230.78 131.09 228.43 126.39 224.79" style="fill:#ff9e2b"/><path d="M173,232.05a20.11,20.11,0,1,1-.08,0Z" transform="translate(0 -4.85)" style="fill:#d77d13"/><polygon points="138.99 227.99 136.58 229.71 140.01 234.55 141.62 233.42 142.57 235.35 145.23 234.04 142.63 228.71 140.31 229.84 138.99 227.99" style="fill:#ff9e2b"/><polygon points="133.46 230.25 131.64 232.6 136.33 236.22 138.13 233.87 133.46 230.25" style="fill:#ff9e2b"/><polygon points="64.01 230.35 63.61 233.32 69.49 234.12 69.89 231.18 64.01 230.35" style="fill:#ff9e2b"/><polygon points="72.84 231.58 72.44 234.52 78.32 235.35 78.71 232.4 72.84 231.58" style="fill:#ff9e2b"/><polygon points="81.66 232.79 81.27 235.75 87.14 236.57 87.54 233.61 81.66 232.79" style="fill:#ff9e2b"/><polygon points="90.5 234.01 90.09 236.97 95.96 237.79 96.36 234.83 90.5 234.01" style="fill:#ff9e2b"/><polygon points="99.31 235.26 98.92 238.18 104.8 239.01 105.18 236.06 99.31 235.26" style="fill:#ff9e2b"/><polygon points="108.14 236.48 107.75 239.41 113.62 240.23 114.02 237.28 108.14 236.48" style="fill:#ff9e2b"/><polygon points="116.97 237.71 116.57 240.63 122.44 241.46 122.84 238.53 116.97 237.71" style="fill:#ff9e2b"/><polygon points="125.79 238.92 125.4 241.87 131.28 242.67 131.67 239.75 125.79 238.92" style="fill:#ff9e2b"/><polygon points="134.62 240.14 134.22 243.1 140.09 243.9 140.49 240.97 134.62 240.14" style="fill:#ff9e2b"/><polygon points="144.26 240.51 145.05 241.6 143.59 241.4 144.26 240.51" style="fill:#ff9e2b"/><polygon points="145.61 241.54 145.68 241.69 145.44 241.65 145.61 241.54" style="fill:#ff9e2b"/></svg>