<svg id="Layer_1" data-name="Layer 1" xmlns="http://www.w3.org/2000/svg" xmlns:xlink="http://www.w3.org/1999/xlink" viewBox="0 0 405.59 296.67" height="291" width="464"><defs><clipPath id="clip-path" transform="translate(-30.71 2.6)"><path id="SVGID" d="M347.89,180.08l-1.88-.69,7.28-20,1.87.69ZM103.08,202.73l-.27-2-30,4,.27,2Zm-45-25.28,0-2,38.91-.71,0,2Zm38.36-.87-46.36-29.2,1.07-1.69,46.36,29.2Zm7.26,25.84-1.45-1.37,34-36,1.45,1.37Zm-6.48-25.71-.49-1.94,40-10,.49,1.94Zm-1-.32L77.63,155.05l1.51-1.31L97.7,175.08Zm40.19-9.83L113.45,150.9l1.12-1.65,22.94,15.66Zm-49,61.09-.83-1.82,22-10,.83,1.82ZM82.2,250.71l-.5-1.94,35-9,.5,1.94Zm34.32-9.07-30-14,.85-1.81,30,14Zm-26.8,33.73-1.55-1.27,28-34,1.55,1.27Zm18.73,9.23-1-1.73,24-14,1,1.73Zm16.42,5.51-1.85-.74,8-20,1.85.74Zm31.07-8.32-2-.11L156.28,237l2,.1Zm2-42.05h-2v-29h2Zm-40.4,1.8-1.2-1.6,40-30,1.2,1.6Zm-8.48-23.81-.25-2,48-6,.25,2Zm.48-.19-1.2-1.6,28-21,1.2,1.6Zm7.42,24.2,0-2,40-1,.05,2Zm15.74,28.64-1.53-1.28,25-30,1.53,1.28Zm-1.65-.18-15-29,1.77-.92,15,29Zm50.09,3.14-25-33,1.59-1.21,25,33Zm1.28.27-1-1.75,39.33-22,1,1.75Zm38.53-.74-3-22,2-.27,3,22Zm40.25-7.45-13-14,1.47-1.36,13,14ZM249,251.74H219v-2h30Zm-29.11-.56-1.79-.89,10-20,1.79.89ZM218,251l-8-32.75,1.95-.47,8,32.75Zm-7.31-32-24-7.25.58-1.91,24,7.25Zm-27.72,53.88-2-.16,5-62,2,.16Zm-45-77.08h-2v-30h2ZM108,217.11l-6-15,1.85-.74,6,15Zm5.07-65.38-.29-2,34-5,.29,2Zm72.52-18-61-22,.68-1.88,61,22ZM125.78,111.3l-1.66-1.12,17-25.25,1.66,1.12Zm45-5.4-.06-2,36.16-1.16.07,2Zm35.26-1.68-14-25,1.75-1,14,25Zm15.71,9.52h-2V81.82h2Zm-2,1v-2l45.33,0v2Zm45.17,13-2,0,.16-14,2,0Zm-39,6H186v-2h40Zm-18-.42h-2V103.74h2Zm8,57.45-1-28,2-.07,1,28Zm-19.6-9.23-20-15,1.2-1.6,20,15Zm-9.4,30.2H157v-2h30Zm-49.76-15-.49-1.94,60-15,.49,1.94Zm39.76-30H137v-2h40Zm-29.69-20.06-.63-1.89,39-13,.63,1.89Zm29.76,20-.15-2,39-3,.15,2Zm10.87,44.32-1.89-.63,10-30,1.89.63Zm58.89-14.33-30-5,.33-2,30,5Zm-17.59,35-.49-1.94,40-10,.49,1.94ZM301,254.1l-5-13,1.87-.72,5,13Zm30.28-22.61-23-20L309.6,210l23,20Zm-81.51,19.8-1.67-1.11,20-30,1.67,1.11ZM296,241.05l-20-60,1.89-.63,20,60Zm-26.81-19.34-.49-1.94,40-10,.49,1.94Zm85.39-10-48-19,.73-1.86,48,19Zm11.66-20-19.75-10.08.91-1.78,19.75,10.08Zm18.43-21-31-9,.55-1.92,31,9Zm20-20-29-7,.47-2,29,7Zm-28.45-7-.63-1.89,39-13,.63,1.89Zm37.91-13.31-13-16,1.55-1.26,13,16Zm-79.7-1.78-1.05-1.71,39.69-24.39,1.05,1.71Zm39.13-24.25-48.69-1.6.07-2,48.69,1.6Zm24.64-17.9-34-34L365.65,51l34,34ZM365,52.74l-.05-2,35-1,.05,2Zm-20-20-.13-2,46.31-2.92.13,2Zm.51-.18-1.15-1.63,37-26,1.15,1.63Zm.42-.75-2-.13,2-30,2,.13Zm-32,10-2-23,2-.17,2,23Zm.44,30.75L281.92,50.89,283,49.23,315.5,70.9Zm-30.24,29.77-24-32,1.6-1.2,24,32ZM248,195.74h-2v-25h2Zm28.68-14.06-30-10,.63-1.89,30,10Zm1.08-.3-1.53-1.29,17-20,1.53,1.29Zm-61.17-17.84-1.18-1.61,48-35,1.18,1.61Zm9.54-29.81-.26-2,38-5,.26,2Zm-49.69,32.84-30-20,1.11-1.67,30,20Zm35.08,52.27-1.05-1.7,36-22.25,1.05,1.7Zm-24-7.27-1.11-1.67,30-20,1.11,1.67Zm30-20-1.11-1.67,30-20,1.11,1.67Zm-19.87-10.11L196.26,180l19-18,1.37,1.45Zm102-40.78-36-12,.63-1.89,36,12Zm.65,0-.67-1.89,34-12,.67,1.89Zm75.63,3.06-76-3,.08-2,76,3Zm-22,18H294v-2h60Zm-7,20H277v-2h70Zm-131-18-.05-2,78-2,.05,2Zm31,33-.13-2,60-4,.13,2ZM182.83,273.2l-1.77-.93,29-54.75,1.77.93ZM294.91,161l-1.93-.55,6-21,1.93.55Zm30-58.27H285v-2h40Zm29.75-20-40-10,.49-1.94,40,10ZM314,71.75l-.34-32,2,0,.34,32Zm1.8.59-1.6-1.2,30-40,1.6,1.2Zm48.49-19.9-20-20L345.65,31l20,20Zm-8.35,29.61L354,81.42l10-30,1.89.63ZM354,81.94,344,34.27l1.95-.41,10,47.67Zm-30,20.11-10-30,1.89-.63,10,30Zm-38.35.39L284.24,101l30-30,1.41,1.41ZM372.88,104,354.19,82.39l1.51-1.31,18.69,21.61Zm-90.1-53-.61-1.9,32.14-10.33.61,1.91ZM284,101.77l-2-53,2-.07,2,53ZM263.57,128.4l-1.12-54.93,2,0,1.12,54.94Zm69.43-.34-9-26,1.89-.65,9,26ZM375.86,142l4.38-24.16,1.95.4-4.37,24.17Zm-22.77,19.28-20-33,1.71-1,20,33Zm-88.37-32.9-1.55-1.25,21-26,1.55,1.25Zm34,10.09L284,102.11l1.85-.75,14.75,36.33ZM247.88,171.1l-1.86-.73,17-43,1.86.73Zm-31-8-1.89-.63,10-30,1.89.63Zm137.69-1.54L353.31,160l22-18,1.27,1.55ZM307.21,192.7l-.53-1.93,40-11,.53,1.93Zm.74,18.14-2-19,2-.21,2,19ZM268.2,221.4l-22-25,1.5-1.32,22,25Zm28.95,20.32-.41-2-48,10,.41,2Zm35.07-10-.55-1.93-35,10,.55,1.93Z" style="fill:#17e4e0"/></clipPath></defs><path d="M85.65,224.39c-1.22-1.07-1.12-2.75-2-4.07-1.5-2.32-3.47-4.19-5.14-6.33-.68-.85-1.59-1.58-1.75-2.69-.22-1.46-1.62-2-2.35-3-1.19-1.63-2-3.5-3.26-5.05s-1.73-3.42-2.76-4.86c-1.55-2.15-2.5-4.59-4-6.74-2.09-3.06-3.07-6.63-4.3-10.06-.63-1.75-1.68-3.31-2.09-5.17-.5-2.25-1.2-4.45-1.82-6.68a11.49,11.49,0,0,0-1.62-3.5,9.64,9.64,0,0,1-2-4.51,4.52,4.52,0,0,0-1.49-2.32,32.44,32.44,0,0,1-4-5c-1-1.61-1.36-3.59-3.11-4.8-.58-.39,0-.87.46-1,1.27-.38,2.61-.58,3.49-1.76a.53.53,0,0,1,.83,0c.66.71,1.19.41,1.76-.33,1.18-1.53,1.29-3.07.13-4.47.36-.55,2.32.59,1.4-1.35-.1-.21.35-.13.5-.24.38-.27,1.07-.66,1-.9-.56-3.42,2.71-1.75,3.89-2.87.45-.42,1,1.09,1.7,1.21,1.23.21.9.81.67,1.59a1.6,1.6,0,0,0,2,1.87c.57-.11,1.24-.67,1.74-.08a7.88,7.88,0,0,1,1.41,3.37c0,.1,0,.29-.11.31-.9.33-2.23.63-1.34,1.87.43.6.39,1.81,1.66,1.93.3,0,.3,1.29,0,1.95-.73,1.57.31,1.64,1.29,1.38a6.16,6.16,0,0,1,1.69-.28c.71,0,1.42-.28,1.52,1,.07.78,1.14.87,2,.61a7.15,7.15,0,0,1,6.62.94,15.51,15.51,0,0,0,4.25,2.12c.21.09.49.31.62.24,2.83-1.48,6,.31,9-1.21,2.66-1.34,5.87-.5,8.82.15,1,.21.71,1.27,1.68,1.64,1.81.71,3.29.8,4.8-.42.09-.07.16-.22.25-.24,1.6-.36,2.11-.89.44-2-.51-.34-.2-1,.11-1.32s.48-.84,1.22-.72c2.35.36,3.29-.54,4.42-2.55.59-1,1.06-3.39,3.39-2.15,1.31-1.42,3.75.28,4.85-1.77.24-.45.7-.36,1.1-.34,1.74.08,2.47.93,2.26-.91" transform="translate(-30.71 2.6)" style="fill:#3ef8f4;fill-opacity:0.5;stroke:#17e4e0;stroke-miterlimit:10;stroke-width:2px"/><path d="M125.63,144.9c0-9,0-40.7,0-49.67q0-11.94,0-23.88c.59-.21.88.25,1.25.49q5.89,3.9,11.76,7.83A8.24,8.24,0,0,1,141.86,85c0,.16,0,.43.11.47,2.71,1.23,1.45,3.76,1.88,5.73,0,.14-.22.33-.19.46a3.86,3.86,0,0,1-1.29,4.19c-1.17,1-1.42,2.74-3.13,3.29-.55.18-.6,1.8-.46,2,1.19,1.85.17,3.84.51,5.73.22,1.23,1.37,1.92,1.38,3.17,0,.2.52.53.68.22.66-1.21,2.26-.66,3.06-1.72a1.59,1.59,0,0,1,1.82-.42c1.41.57,2.93.83,4.37,1.34a2.57,2.57,0,0,0,1.7.12,14.61,14.61,0,0,1,7.56-.47c1.81.37,4.34,1.14,6.15-.78.49-.52,1.15-.82.69-1.87-.37-.84-.23-1.82,1.38-1.44,2,.46,3.72-.47,5.22-1.65.78-.61.54-.67.94-.69,2.25-.09,6-3.56,7.08-5.53,1-1.75,4.09-4,4.84-5.14,1.12-1.66,3.1-3,2.41-5.5,1.9-.68-.32-3.14,1.72-4a2.5,2.5,0,0,0,.58-3c-.19-.31.1-.41.21-.56,1.17-1.62,1.93-3.57,3.65-4.77.21-.14.11-.55.72-.44a4.28,4.28,0,0,0,3.47-.74c1-.73,2.22.19,3.34.33a12.52,12.52,0,0,0,1.37.18,2.4,2.4,0,0,1,2.12.67,15.13,15.13,0,0,0,4.69,2.81c.51.19.86.17,1.24.83.73,1.24,2.59,1.48,3.2,3,0,0,.12.1.15.08,1.59-.57,3.08.91,4.67.23,1.28-.55,2.16,0,3.08.91,1.11,1.14,2.36,2.15,4.21,1.77a3.39,3.39,0,0,1,2.06.21,16.93,16.93,0,0,0,8,1.24c1.43-.09,2.31-1,3.34-1.58a2,2,0,0,1,1.84-.16,12,12,0,0,0,8.58-.44c3.89-1.59,5-4.72,5.9-8.21.64-2.59,2.17-4.78,3-7.28a12.42,12.42,0,0,1,1.38-3.31c.88-1.26-.5-2.2-.66-3.3,3.91-.9,7.76-1.77,11.6-2.67a4.22,4.22,0,0,0,3.41-3,6.75,6.75,0,0,1,2.48-2.66c1.41-1.08,2.82-2.31,4.58-2.69a1.84,1.84,0,0,0,1.54-2.3,6.78,6.78,0,0,1,.87-4.35c.9-2,.68-4.09,1.33-6,.09-.27,0-.77.19-.81,3-1,4.09-4.36,7.12-5.49a39,39,0,0,1,4.83-1.7A2,2,0,0,0,300,27.43c.13-1.71,1.24-2.41,2.79-1.76.81.34,1.12.07,1.49-.63a5.14,5.14,0,0,1,2.87-2.62,1.74,1.74,0,0,0,1.34-2c0-.36-.12-.75.42-1,1.12-.53,2.41-1,2.07-2.71,0-.11.15-.33.27-.37,1.42-.5,2-1.79,2.88-2.8,1.32-1.48,3-3.32,5.47-2.89s4.4-.55,6.55-1.21c1.64-.51,3-1.75,4.87-1.7,1.11,0,1-1.24,1.1-1.91.29-1.88.8-3,3-3.54,2.05-.45,4.11-.06,6.06-.55,2.15-.56,4.43-.37,6.54-1.29a3.88,3.88,0,0,1,2.68.39C353,2,356,2.1,358,4.39a.76.76,0,0,0,1,.14,1.91,1.91,0,0,1,2.61.61c1.11,1.21,2.6.33,3.57.06,2.28-.63,4.59.12,6.8-.57,2.67-.85,5.25-.2,7.81.59a2,2,0,0,0,1.37.07c1.29-.8,2.28.32,3.26.61s1.53,1.6,1.9,2.78c1.4,4.48,2.75,9,4.39,13.4.85,2.27.62,4.5.55,6.74-.05,1.62.15,2.9,1.47,3.94a5.25,5.25,0,0,1,1.92,3.68,6.82,6.82,0,0,0,3,5.18c1.78,1,1.39,3,1.7,4.59a5.87,5.87,0,0,0,.91,2.53c1.77,2.38,1.73,5,1.42,7.8a38,38,0,0,0,.33,8,31.64,31.64,0,0,1,0,7.84c-.2,1.48,0,3-1.08,4.28a1.09,1.09,0,0,0-.05,1c1.73,2.62-.21,4.85-.72,7.23a2.24,2.24,0,0,0,0,1.63c.26.5,1.12,1.05.36,1.63a2,2,0,0,1-2.69.2c-2.35-2.17-5.31-3.35-7.95-5a3.43,3.43,0,0,0-4.83.86,9.32,9.32,0,0,1-1.85,1.57c-2.51,1.76-2.86,4.82-4.35,7.2-1,1.57-2.15,3-3.23,4.48a8.76,8.76,0,0,0-2,5.86c.09,1.63-.34,3.28.29,4.88.15.36.15,1,.65.74,1.92-1.2,1.94,1.25,3.11,1.59.71.21-.72,1.46.26,2.31,2.54,2.19,4.49,4.78,8.12,5.93,4.84,1.53,9.6.87,14.39,1.2,1,.07,1.18-.39,1.13-1.24-.22-3.28.48-6.47,1-9.67.21-1.24.88-1,1.39-.45a2.45,2.45,0,0,0,1.85.73c3.3,0,6.62-.16,9.91.06,2,.14,3.91-.25,5.85,0,.87.1,1.6.07,1.33,1.66-.76,4.49-2.84,8.45-4.37,12.63A52.58,52.58,0,0,0,416.5,132c-.18,1-.51,1.13-1.3,1.07-.3,0,.42,2,.12,2l-3.75,9.62c.71,0-1.75,2.57-1,2.57-.22,1.25-1.33,1.69-2.07,2.39-1.91,1.79-3.9,3.5-5.88,5.21-1.4,1.2-3.23,1.43-4.91,1.92a4.48,4.48,0,0,0-2.07,1.16c-3.3,3.31-6.71,6.53-9.89,10a33.93,33.93,0,0,0-5.9,8.27,3,3,0,0,0-.5,2.46c.29.69-.28.85-.55,1.08a23.42,23.42,0,0,0-6.07,8.59c-.46,1-1.85,4.42-2.91,5-2.33,1.19-7.32,6.18-6.12,8.51.1.2-2.22,2.12-1.88,2.14a68.71,68.71,0,0,1-7.79,8.69c-1,.92-1.89,2.1-3.51,1.89-.65-.09-1,.44-1.26.82a14.7,14.7,0,0,1-6.48,4.55,4.85,4.85,0,0,0-2.09,1.93c-1.73,2.75-4.34,4.72-6.38,7.22-2.6,3.2-6,5.7-9.08,8.49-2.16,2-4.48,3.7-6.81,5.43a13.17,13.17,0,0,1-4.35,2.33c-1.05.29-1.91.68-2.15,2a2.16,2.16,0,0,1-1,1.29q-10,6.54-20.25,12.64a37.79,37.79,0,0,1-9.87,4A18.6,18.6,0,0,0,277,267a9.74,9.74,0,0,1-7.57.42c-4.5-1.35-8.8-1.71-12.9,1.12a8,8,0,0,0-1.43,1.27c-1.41,1.64-1.26,2.64.51,3.88-.13.63-.62.54-1.07.54a40.78,40.78,0,0,1-8.48-1.38c-2.68-.57-5.64-1.47-7.71,1.56-.26.38-.77.17-1.15.17-5.78,0-11.57.18-17.34-.06A71.3,71.3,0,0,1,210,273.1a8.54,8.54,0,0,0-6.71,1.18,2.26,2.26,0,0,1-1.49.32c-3.12,0-6.26.17-9.37-.05a50.84,50.84,0,0,1-6.4-1.23,2.75,2.75,0,0,0-2.46.39,5.43,5.43,0,0,1-4,.89c-2.82-.34-5.28,0-6.26,3.21-.19.64-.81.22-1.22.34-1.42.4-3.29.19-3.12,2.62,0,.65-.92,1.14-1.54,1.18-1.59.11-3.17.6-4.78.08-1.87-.6-3.63-.81-5.43.56a3.45,3.45,0,0,1-3.49.3,12.41,12.41,0,0,0-6-1.18c-1.38.13-3.22-.27-3.08,2.16,0,.45-.55.3-.85.22a11.62,11.62,0,0,0-7.16.36,4.83,4.83,0,0,0-1.55,1,21.27,21.27,0,0,1-6.52,4,4,4,0,0,0-2.4,1.88c-.55,1.55-1.45,1.17-2.21.61-1.94-1.42-4-.39-6.16-.83-2.32-.48-5.6-5.17-8-5.16-.42,0-6.2-5.34-6.56-5.19a36.24,36.24,0,0,1-4.15,1.09c-.56.16-.34-.28-.48-.42-.32-.33-.48-.83-.06-1.05.76-.41.5-.92.35-1.47-.06-.22-.21-.44-.18-.65.27-2-.94-3.25-3.14-3.29a15.82,15.82,0,0,0-4.5.37,3.08,3.08,0,0,0-2.45,2.4c-.06.28-.32.61,0,.72,1.56.53.77,1.57.51,2.51-.57-1.72-2.4-3.13-1.27-5.29a.83.83,0,0,0-.1-1.07c-.65-.82.31-2.44,1.39-2.48a1.71,1.71,0,0,0,1.22-2.71,3.55,3.55,0,0,1-.69-2.43c.11-1.47-1.43-2.15-2.17-3.22s-.82-2.79-2.25-3.41c-2-.85-2.18-3.06-3.58-4.32-.12-.1-.25-.31-.22-.43.38-1.33.39-1.34-.71-2.26a1.23,1.23,0,0,1-.49-1.24c.25-1.21-.74-1.37-1.47-1.76s-1.23.17-1.55.87a5.37,5.37,0,0,1-.47-3.87,3.81,3.81,0,0,1,2.79-1.79c1.86.8,2.84.46,4.25-1,1.17-1.18,2.26-1,2.69-2.66l.17-.45.28-1.78c-.28-2.92.47-5.82-.23-8.8a36.25,36.25,0,0,1-1.1-6.52" transform="translate(-30.71 2.6)" style="fill:#3ef8f4;fill-opacity:0.5;stroke:#17e4e0;stroke-miterlimit:10;stroke-width:2px"/><path d="M125.63,139.13v-17" transform="translate(-30.71 2.6)" style="fill:#3ef8f4;stroke:#17e4e0;stroke-miterlimit:10;stroke-width:2px"/><path d="M79.59,245.55l-2.79,1.79c-.38-1.15.71-1.83,1-2.72C78,244.17,78.92,245.31,79.59,245.55Z" transform="translate(-30.71 2.6)" style="fill:#3ef8f4;stroke:#17e4e0;stroke-miterlimit:10;stroke-width:2px"/><path id="SVGID-2" data-name="SVGID" d="M347.89,180.08l-1.88-.69,7.28-20,1.87.69ZM103.08,202.73l-.27-2-30,4,.27,2Zm-45-25.28,0-2,38.91-.71,0,2Zm38.36-.87-46.36-29.2,1.07-1.69,46.36,29.2Zm7.26,25.84-1.45-1.37,34-36,1.45,1.37Zm-6.48-25.71-.49-1.94,40-10,.49,1.94Zm-1-.32L77.63,155.05l1.51-1.31L97.7,175.08Zm40.19-9.83L113.45,150.9l1.12-1.65,22.94,15.66Zm-49,61.09-.83-1.82,22-10,.83,1.82ZM82.2,250.71l-.5-1.94,35-9,.5,1.94Zm34.32-9.07-30-14,.85-1.81,30,14Zm-26.8,33.73-1.55-1.27,28-34,1.55,1.27Zm18.73,9.23-1-1.73,24-14,1,1.73Zm16.42,5.51-1.85-.74,8-20,1.85.74Zm31.07-8.32-2-.11L156.28,237l2,.1Zm2-42.05h-2v-29h2Zm-40.4,1.8-1.2-1.6,40-30,1.2,1.6Zm-8.48-23.81-.25-2,48-6,.25,2Zm.48-.19-1.2-1.6,28-21,1.2,1.6Zm7.42,24.2,0-2,40-1,.05,2Zm15.74,28.64-1.53-1.28,25-30,1.53,1.28Zm-1.65-.18-15-29,1.77-.92,15,29Zm50.09,3.14-25-33,1.59-1.21,25,33Zm1.28.27-1-1.75,39.33-22,1,1.75Zm38.53-.74-3-22,2-.27,3,22Zm40.25-7.45-13-14,1.47-1.36,13,14ZM249,251.74H219v-2h30Zm-29.11-.56-1.79-.89,10-20,1.79.89ZM218,251l-8-32.75,1.95-.47,8,32.75Zm-7.31-32-24-7.25.58-1.91,24,7.25Zm-27.72,53.88-2-.16,5-62,2,.16Zm-45-77.08h-2v-30h2ZM108,217.11l-6-15,1.85-.74,6,15Zm5.07-65.38-.29-2,34-5,.29,2Zm72.52-18-61-22,.68-1.88,61,22ZM125.78,111.3l-1.66-1.12,17-25.25,1.66,1.12Zm45-5.4-.06-2,36.16-1.16.07,2Zm35.26-1.68-14-25,1.75-1,14,25Zm15.71,9.52h-2V81.82h2Zm-2,1v-2l45.33,0v2Zm45.17,13-2,0,.16-14,2,0Zm-39,6H186v-2h40Zm-18-.42h-2V103.74h2Zm8,57.45-1-28,2-.07,1,28Zm-19.6-9.23-20-15,1.2-1.6,20,15Zm-9.4,30.2H157v-2h30Zm-49.76-15-.49-1.94,60-15,.49,1.94Zm39.76-30H137v-2h40Zm-29.69-20.06-.63-1.89,39-13,.63,1.89Zm29.76,20-.15-2,39-3,.15,2Zm10.87,44.32-1.89-.63,10-30,1.89.63Zm58.89-14.33-30-5,.33-2,30,5Zm-17.59,35-.49-1.94,40-10,.49,1.94ZM301,254.1l-5-13,1.87-.72,5,13Zm30.28-22.61-23-20L309.6,210l23,20Zm-81.51,19.8-1.67-1.11,20-30,1.67,1.11ZM296,241.05l-20-60,1.89-.63,20,60Zm-26.81-19.34-.49-1.94,40-10,.49,1.94Zm85.39-10-48-19,.73-1.86,48,19Zm11.66-20-19.75-10.08.91-1.78,19.75,10.08Zm18.43-21-31-9,.55-1.92,31,9Zm20-20-29-7,.47-2,29,7Zm-28.45-7-.63-1.89,39-13,.63,1.89Zm37.91-13.31-13-16,1.55-1.26,13,16Zm-79.7-1.78-1.05-1.71,39.69-24.39,1.05,1.71Zm39.13-24.25-48.69-1.6.07-2,48.69,1.6Zm24.64-17.9-34-34L365.65,51l34,34ZM365,52.74l-.05-2,35-1,.05,2Zm-20-20-.13-2,46.31-2.92.13,2Zm.51-.18-1.15-1.63,37-26,1.15,1.63Zm.42-.75-2-.13,2-30,2,.13Zm-32,10-2-23,2-.17,2,23Zm.44,30.75L281.92,50.89,283,49.23,315.5,70.9Zm-30.24,29.77-24-32,1.6-1.2,24,32ZM248,195.74h-2v-25h2Zm28.68-14.06-30-10,.63-1.89,30,10Zm1.08-.3-1.53-1.29,17-20,1.53,1.29Zm-61.17-17.84-1.18-1.61,48-35,1.18,1.61Zm9.54-29.81-.26-2,38-5,.26,2Zm-49.69,32.84-30-20,1.11-1.67,30,20Zm35.08,52.27-1.05-1.7,36-22.25,1.05,1.7Zm-24-7.27-1.11-1.67,30-20,1.11,1.67Zm30-20-1.11-1.67,30-20,1.11,1.67Zm-19.87-10.11L196.26,180l19-18,1.37,1.45Zm102-40.78-36-12,.63-1.89,36,12Zm.65,0-.67-1.89,34-12,.67,1.89Zm75.63,3.06-76-3,.08-2,76,3Zm-22,18H294v-2h60Zm-7,20H277v-2h70Zm-131-18-.05-2,78-2,.05,2Zm31,33-.13-2,60-4,.13,2ZM182.83,273.2l-1.77-.93,29-54.75,1.77.93ZM294.91,161l-1.93-.55,6-21,1.93.55Zm30-58.27H285v-2h40Zm29.75-20-40-10,.49-1.94,40,10ZM314,71.75l-.34-32,2,0,.34,32Zm1.8.59-1.6-1.2,30-40,1.6,1.2Zm48.49-19.9-20-20L345.65,31l20,20Zm-8.35,29.61L354,81.42l10-30,1.89.63ZM354,81.94,344,34.27l1.95-.41,10,47.67Zm-30,20.11-10-30,1.89-.63,10,30Zm-38.35.39L284.24,101l30-30,1.41,1.41ZM372.88,104,354.19,82.39l1.51-1.31,18.69,21.61Zm-90.1-53-.61-1.9,32.14-10.33.61,1.91ZM284,101.77l-2-53,2-.07,2,53ZM263.57,128.4l-1.12-54.93,2,0,1.12,54.94Zm69.43-.34-9-26,1.89-.65,9,26ZM375.86,142l4.38-24.16,1.95.4-4.37,24.17Zm-22.77,19.28-20-33,1.71-1,20,33Zm-88.37-32.9-1.55-1.25,21-26,1.55,1.25Zm34,10.09L284,102.11l1.85-.75,14.75,36.33ZM247.88,171.1l-1.86-.73,17-43,1.86.73Zm-31-8-1.89-.63,10-30,1.89.63Zm137.69-1.54L353.31,160l22-18,1.27,1.55ZM307.21,192.7l-.53-1.93,40-11,.53,1.93Zm.74,18.14-2-19,2-.21,2,19ZM268.2,221.4l-22-25,1.5-1.32,22,25Zm28.95,20.32-.41-2-48,10,.41,2Zm35.07-10-.55-1.93-35,10,.55,1.93Z" transform="translate(-30.71 2.6)" style="fill:#17e4e0"/><g style="clip-path:url(#clip-path)"><path d="M233.45-.33q100.57,0,201.14,0c1.46,0,1.7.32,1.7,1.73q-.06,145,0,289.94c0,1.39-.2,1.75-1.69,1.75q-201-.06-402.1,0c-1.53,0-1.79-.36-1.79-1.82q.06-145,0-290c0-1.28.22-1.65,1.6-1.65Q132.89-.31,233.45-.33Z" transform="translate(-30.71 2.6)" style="fill:#17e4e0"/><path d="M260.41,61.09c3.91-.9,7.76-1.77,11.6-2.67a4.22,4.22,0,0,0,3.41-3,6.75,6.75,0,0,1,2.48-2.66c1.41-1.08,2.82-2.31,4.58-2.69a1.84,1.84,0,0,0,1.54-2.3,6.78,6.78,0,0,1,.87-4.35c.9-2,.68-4.09,1.33-6,.09-.27,0-.77.19-.81,3-1,4.09-4.36,7.12-5.49a39,39,0,0,1,4.83-1.7A2,2,0,0,0,300,27.43c.13-1.71,1.24-2.41,2.79-1.76.81.34,1.12.07,1.49-.63a5.14,5.14,0,0,1,2.87-2.62,1.74,1.74,0,0,0,1.34-2c0-.36-.12-.75.42-1,1.12-.53,2.41-1,2.07-2.71,0-.11.15-.33.27-.37,1.42-.5,2-1.79,2.88-2.8,1.32-1.48,3-3.32,5.47-2.89s4.4-.55,6.55-1.21c1.64-.51,3-1.75,4.87-1.7,1.11,0,1-1.24,1.1-1.91.29-1.88.8-3,3-3.54,2.05-.45,4.11-.06,6.06-.55,2.15-.56,4.43-.37,6.54-1.29a3.88,3.88,0,0,1,2.68.39C353,2,356,2.1,358,4.39a.76.76,0,0,0,1,.14,1.91,1.91,0,0,1,2.61.61c1.11,1.21,2.6.33,3.57.06,2.28-.63,4.59.12,6.8-.57,2.67-.85,5.25-.2,7.81.59a2,2,0,0,0,1.37.07c1.29-.8,2.28.32,3.26.61s1.53,1.6,1.9,2.78c1.4,4.48,2.75,9,4.39,13.4.85,2.27.62,4.5.55,6.74-.05,1.62.15,2.9,1.47,3.94a5.25,5.25,0,0,1,1.92,3.68,6.82,6.82,0,0,0,3,5.18c1.78,1,1.39,3,1.7,4.59a5.87,5.87,0,0,0,.91,2.53c1.77,2.38,1.73,5,1.42,7.8a38,38,0,0,0,.33,8,31.64,31.64,0,0,1,0,7.84c-.2,1.48,0,3-1.08,4.28a1.09,1.09,0,0,0-.05,1c1.73,2.62-.21,4.85-.72,7.23a2.24,2.24,0,0,0,0,1.63c.26.5,1.12,1.05.36,1.63a2,2,0,0,1-2.69.2c-2.35-2.17-5.31-3.35-7.95-5a3.43,3.43,0,0,0-4.83.86,9.32,9.32,0,0,1-1.85,1.57c-2.51,1.76-2.86,4.82-4.35,7.2-1,1.57-2.15,3-3.23,4.48a8.76,8.76,0,0,0-2,5.86c.09,1.63-.34,3.28.29,4.88.15.36.15,1,.65.74,1.92-1.2,1.94,1.25,3.11,1.59.71.21-.72,1.46.26,2.31,2.54,2.19,4.49,4.78,8.12,5.93,4.84,1.53,9.6.87,14.39,1.2,1,.07,1.18-.39,1.13-1.24-.22-3.28.48-6.47,1-9.67.21-1.24.88-1,1.39-.45a2.45,2.45,0,0,0,1.85.73c3.3,0,6.62-.16,9.91.06,2,.14,3.91-.25,5.85,0,.87.1,1.6.07,1.33,1.66-.76,4.49-2.84,8.45-4.37,12.63A52.58,52.58,0,0,0,416.5,132c-.18,1-.51,1.13-1.3,1.07-.3,0-.59,0-.89,0q-84.12,0-168.25,0a5.84,5.84,0,0,1-3.43-1.05q-28.06-18.76-56.19-37.43c-1.49-1-1-1.46-.28-2.56,1.12-1.66,3.1-3,2.41-5.5,1.9-.68-.32-3.14,1.72-4a2.5,2.5,0,0,0,.58-3c-.19-.31.1-.41.21-.56,1.17-1.62,1.93-3.57,3.65-4.77.21-.14.11-.55.72-.44a4.28,4.28,0,0,0,3.47-.74c1-.73,2.22.19,3.34.33a12.52,12.52,0,0,0,1.37.18,2.4,2.4,0,0,1,2.12.67,15.13,15.13,0,0,0,4.69,2.81c.51.19.86.17,1.24.83.73,1.24,2.59,1.48,3.2,3,0,0,.12.1.15.08,1.59-.57,3.08.91,4.67.23,1.28-.55,2.16,0,3.08.91,1.11,1.14,2.36,2.15,4.21,1.77a3.39,3.39,0,0,1,2.06.21,16.93,16.93,0,0,0,8,1.24c1.43-.09,2.31-1,3.34-1.58a2,2,0,0,1,1.84-.16,12,12,0,0,0,8.58-.44c3.89-1.59,5-4.72,5.9-8.21.64-2.59,2.17-4.78,3-7.28a12.42,12.42,0,0,1,1.38-3.31C262,63.13,260.57,62.19,260.41,61.09Z" transform="translate(-30.71 2.6)" style="fill:#17e4e0"/><path d="M125.63,122.12q0-13.44,0-26.89,0-11.94,0-23.88c.59-.21.88.25,1.25.49q5.89,3.9,11.76,7.83A8.24,8.24,0,0,1,141.86,85c0,.16,0,.43.11.47,2.71,1.23,1.45,3.76,1.88,5.73,0,.14-.22.33-.19.46a3.86,3.86,0,0,1-1.29,4.19c-1.17,1-1.42,2.74-3.13,3.29-.55.18-.6,1.8-.46,2,1.19,1.85.17,3.84.51,5.73.22,1.23,1.37,1.92,1.38,3.17,0,.2.52.53.68.22.66-1.21,2.26-.66,3.06-1.72a1.59,1.59,0,0,1,1.82-.42c1.41.57,2.93.83,4.37,1.34a2.57,2.57,0,0,0,1.7.12,14.61,14.61,0,0,1,7.56-.47c1.81.37,4.34,1.14,6.15-.78.49-.52,1.15-.82.69-1.87-.37-.84-.23-1.82,1.38-1.44,2,.46,3.72-.47,5.22-1.65.78-.61,1,.1,1.35.33q11.06,7.31,22.07,14.68,20.88,13.92,41.75,27.86a5.54,5.54,0,0,0,3.27,1q83.34,0,166.67,0h2.19c-.22,1.25-1.33,1.69-2.07,2.39-1.91,1.79-3.9,3.5-5.88,5.21-1.4,1.2-3.23,1.43-4.91,1.92a4.48,4.48,0,0,0-2.07,1.16c-3.3,3.31-6.71,6.53-9.89,10a33.93,33.93,0,0,0-5.9,8.27,3,3,0,0,0-.5,2.46c.29.69-.28.85-.55,1.08a23.42,23.42,0,0,0-6.07,8.59,2.2,2.2,0,0,1-2.28,1.45q-26.37-.06-52.72,0a5.34,5.34,0,0,1-1.06,0,1.92,1.92,0,0,1-1.33-1.37c-.21-.74.74-.56,1.23-.78s1.66,0,1.49-1.24c-.08-.5.48-.63.68-.63,2,0,3.73-1.41,5.92-.68,1,.34,2.42-.46,3.61-.8,2.54-.7,4.75-2.18,7-3.46,1.43-.79,1.7-1.47.87-3s.6-3.75,2.21-4.16,2.07-1.5,1.71-3c-.18-.78.22-.95.79-1,1.88-.19,2.34-1.81,2.5-3.1a3.33,3.33,0,0,0-1.76-3.59c-.35-.17-.66-.22-.57-.66.36-1.92-.93-2.18-2.31-2.25-.35,0-.62-.11-.72-.34-.79-1.83-2.54-2.56-4.06-3.48-1.08-.64-2.52-.8-2.2-2.61.06-.29-.58-.44-.7-.65-.63-1.1-2.63.32-2.77-1.54-1.69-.05-2.13-1.48-2.92-2.56-.32-.43-.78-1.05-1.38-.42-.81.85-1.81.67-2.78.66-1.41,0-2.74.32-3.42,1.61a1.36,1.36,0,0,1-1.6.65c-2.84-.93-4.11,1.18-5.45,2.87-.63.8-1.07,1.14-1.95.68a.83.83,0,0,0-.83-.06c-1.15.76-2.2,1.79-3.8,1-.21-.1-.44.46-.67.68-2,2-2.44,5.26-5.13,6.77.29,1.91-1.84,1.91-2.47,3.11a9.46,9.46,0,0,1-2.48,3.39,5.64,5.64,0,0,1-2.7,1.18,9.1,9.1,0,0,0-3.43,1.49c-.62.4-1.3,1.25-.29,1.93,2.17,1.48,2.56,4,3.77,6.05.44.76.65,1.5,1.57,2,1.13.62.71,2.83,2.63,2.9,0,.15-.06.31-.08.47-.34,2.66-.29,2.74,2.53,3.93H295.2q-26.81,0-53.61,0a5.29,5.29,0,0,0-3.1,1q-67.1,44.77-134.2,89.56c-1.68,1.13-3.47,1.14-5.21,1.66-.56.16-.34-.28-.48-.42-.32-.33-.48-.83-.06-1.05.76-.41.5-.92.35-1.47-.06-.22-.21-.44-.18-.65.27-2-.94-3.25-3.14-3.29a15.82,15.82,0,0,0-4.5.37,3.08,3.08,0,0,0-2.45,2.4c-.06.28-.32.61,0,.72,1.56.53.77,1.57.51,2.51-.57-1.72-2.4-3.13-1.27-5.29a.83.83,0,0,0-.1-1.07c-.65-.82.31-2.44,1.39-2.48a1.71,1.71,0,0,0,1.22-2.71,3.55,3.55,0,0,1-.69-2.43c.11-1.47-1.43-2.15-2.17-3.22s-.82-2.79-2.25-3.41c-2-.85-2.18-3.06-3.58-4.32-.12-.1-.25-.31-.22-.43.38-1.33.39-1.34-.71-2.26a1.23,1.23,0,0,1-.49-1.24c.25-1.21-.74-1.37-1.47-1.76s-1.23.17-1.55.87a5.37,5.37,0,0,1-.47-3.87,3.81,3.81,0,0,1,2.79-1.79c1.86.8,2.84.46,4.25-1,1.17-1.18,2.44-2.22,2.87-3.91a11.77,11.77,0,0,1,2.44-2q51.5-34.31,103-68.64c2.37-1.59,2.38-1.59,0-3.15q-32.28-21.51-64.57-43C126.87,123.36,126,123,125.63,122.12Z" transform="translate(-30.71 2.6)" style="fill:#17e4e0"/><path d="M361.85,203.88a68.71,68.71,0,0,1-7.79,8.69c-1,.92-1.89,2.1-3.51,1.89-.65-.09-1,.44-1.26.82a14.7,14.7,0,0,1-6.48,4.55,4.85,4.85,0,0,0-2.09,1.93c-1.73,2.75-4.34,4.72-6.38,7.22-2.6,3.2-6,5.7-9.08,8.49-2.16,2-4.48,3.7-6.81,5.43a13.17,13.17,0,0,1-4.35,2.33c-1.05.29-1.91.68-2.15,2a2.16,2.16,0,0,1-1,1.29q-10,6.54-20.25,12.64a37.79,37.79,0,0,1-9.87,4A18.6,18.6,0,0,0,277,267a9.74,9.74,0,0,1-7.57.42c-4.5-1.35-8.8-1.71-12.9,1.12a8,8,0,0,0-1.43,1.27c-1.41,1.64-1.26,2.64.51,3.88-.13.63-.62.54-1.07.54a40.78,40.78,0,0,1-8.48-1.38c-2.68-.57-5.64-1.47-7.71,1.56-.26.38-.77.17-1.15.17-5.78,0-11.57.18-17.34-.06A71.3,71.3,0,0,1,210,273.1a8.54,8.54,0,0,0-6.71,1.18,2.26,2.26,0,0,1-1.49.32c-3.12,0-6.26.17-9.37-.05a50.84,50.84,0,0,1-6.4-1.23,2.75,2.75,0,0,0-2.46.39,5.43,5.43,0,0,1-4,.89c-2.82-.34-5.28,0-6.26,3.21-.19.64-.81.22-1.22.34-1.42.4-3.29.19-3.12,2.62,0,.65-.92,1.14-1.54,1.18-1.59.11-3.17.6-4.78.08-1.87-.6-3.63-.81-5.43.56a3.45,3.45,0,0,1-3.49.3,12.41,12.41,0,0,0-6-1.18c-1.38.13-3.22-.27-3.08,2.16,0,.45-.55.3-.85.22a11.62,11.62,0,0,0-7.16.36,4.83,4.83,0,0,0-1.55,1,21.27,21.27,0,0,1-6.52,4,4,4,0,0,0-2.4,1.88c-.55,1.55-1.45,1.17-2.21.61-1.94-1.42-4-1.18-6.16-.83-1.06.18-1.42-1.11-2.45-.94.25-.79.87-1,1.34-1.27q63.14-42.12,126.29-84.21a4.18,4.18,0,0,1,2.41-.86q57.86,0,115.71,0C361.28,203.84,361.51,203.86,361.85,203.88Z" transform="translate(-30.71 2.6)" style="fill:#17e4e0"/><path d="M85.65,224.39c-1.22-1.07-1.12-2.75-2-4.07-1.5-2.32-3.47-4.19-5.14-6.33-.68-.85-1.59-1.58-1.75-2.69-.22-1.46-1.62-2-2.35-3-1.19-1.63-2-3.5-3.26-5.05s-1.73-3.42-2.76-4.86c-1.55-2.15-2.5-4.59-4-6.74-2.09-3.06-3.07-6.63-4.3-10.06-.63-1.75-1.68-3.31-2.09-5.17-.5-2.25-1.2-4.45-1.82-6.68a11.49,11.49,0,0,0-1.62-3.5,9.64,9.64,0,0,1-2-4.51,4.52,4.52,0,0,0-1.49-2.32,32.44,32.44,0,0,1-4-5c-1-1.61-1.36-3.59-3.11-4.8-.58-.39,0-.87.46-1,1.27-.38,2.61-.58,3.49-1.76a.53.53,0,0,1,.83,0c.66.71,1.19.41,1.76-.33,1.18-1.53,1.29-3.07.13-4.47.36-.55,2.32.59,1.4-1.35-.1-.21.35-.13.5-.24.38-.27,1.07-.66,1-.9-.56-3.42,2.71-1.75,3.89-2.87.45-.42,1,1.09,1.7,1.21,1.23.21.9.81.67,1.59a1.6,1.6,0,0,0,2,1.87c.57-.11,1.24-.67,1.74-.08a7.88,7.88,0,0,1,1.41,3.37c0,.1,0,.29-.11.31-.9.33-2.23.63-1.34,1.87.43.6.39,1.81,1.66,1.93.3,0,.3,1.29,0,1.95-.73,1.57.31,1.64,1.29,1.38a6.16,6.16,0,0,1,1.69-.28c.71,0,1.42-.28,1.52,1,.07.78,1.14.87,2,.61a7.15,7.15,0,0,1,6.62.94,15.51,15.51,0,0,0,4.25,2.12c.21.09.49.31.62.24,2.83-1.48,6,.31,9-1.21,2.66-1.34,5.87-.5,8.82.15,1,.21.71,1.27,1.68,1.64,1.81.71,3.29.8,4.8-.42.09-.07.16-.22.25-.24,1.6-.36,2.11-.89.44-2-.51-.34-.2-1,.11-1.32s.48-.84,1.22-.72c2.35.36,3.29-.54,4.42-2.55.59-1,1.06-3.39,3.39-2.15,1.31-1.42,3.75.28,4.85-1.77.24-.45.7-.36,1.1-.34,1.74.08,2.47-.62,2.26-2.45a33.19,33.19,0,0,1,0-4.23c.82-.21,1.33.37,1.89.75q20.34,13.51,40.63,27.07c2,1.32,2,1.68.07,3q-40.31,26.91-80.65,53.77C87,224.06,86.45,224.58,85.65,224.39Z" transform="translate(-30.71 2.6)" style="fill:#17e4e0"/><path d="M85.65,224.39c8.24-5.46,16.5-10.9,24.73-16.39Q139.2,188.82,168,169.58c1.7-1.13,1.7-1.13,0-2.27l-42.36-28.18v-17l38,25.25c10.06,6.69,20.09,13.42,30.17,20.09,1.1.72,1.43,1,.07,1.95q-53.21,35.4-106.36,70.87a8.3,8.3,0,0,1-.78.41,2.89,2.89,0,0,0,.27-1c-.28-2.92.47-5.82-.23-8.8A36.25,36.25,0,0,1,85.65,224.39Z" transform="translate(-30.71 2.6)" style="fill:#17e4e0"/></g><g id="Outside"><circle cx="316.24" cy="4.33" r="4.33" style="fill:#17e4e0"/><circle cx="351.24" cy="8.33" r="4.33" style="fill:#17e4e0"/><circle cx="359.24" cy="30.33" r="4.33" style="fill:#17e4e0"/><circle cx="369.24" cy="53.33" r="4.33" style="fill:#17e4e0"/><circle cx="368.24" cy="88.33" r="4.33" style="fill:#17e4e0"/><circle cx="342.49" cy="105.33" r="4.33" style="fill:#17e4e0"/><circle cx="371.24" cy="116.33" r="4.33" style="fill:#17e4e0"/><circle cx="384.24" cy="132.33" r="4.33" style="fill:#17e4e0"/><circle cx="374.24" cy="152.33" r="4.33" style="fill:#17e4e0"/><circle cx="354.24" cy="172.33" r="4.33" style="fill:#17e4e0"/><circle cx="338.57" cy="194.83" r="4.33" style="fill:#17e4e0"/><circle cx="324.24" cy="213.33" r="4.33" style="fill:#17e4e0"/><circle cx="301.24" cy="233.33" r="4.33" style="fill:#17e4e0"/><circle cx="271.24" cy="256.33" r="4.33" style="fill:#17e4e0"/><circle cx="231.24" cy="267.33" r="4.33" style="fill:#17e4e0"/><circle cx="191.24" cy="275.33" r="4.33" style="fill:#17e4e0"/><circle cx="151.24" cy="275.33" r="4.33" style="fill:#17e4e0"/><circle cx="124.24" cy="284.33" r="4.33" style="fill:#17e4e0"/><circle cx="93.24" cy="292.33" r="4.33" style="fill:#17e4e0"/><circle cx="77.24" cy="286.33" r="4.33" style="fill:#17e4e0"/><circle cx="58.24" cy="277.33" r="4.33" style="fill:#17e4e0"/><circle cx="51.24" cy="252.33" r="4.33" style="fill:#17e4e0"/><circle cx="56.24" cy="229.33" r="4.33" style="fill:#17e4e0"/><circle cx="42.24" cy="208.33" r="4.33" style="fill:#17e4e0"/><circle cx="28.24" cy="178.33" r="4.33" style="fill:#17e4e0"/><circle cx="18.24" cy="147.33" r="4.33" style="fill:#17e4e0"/><circle cx="48.24" cy="157.33" r="4.33" style="fill:#17e4e0"/><circle cx="82.24" cy="153.33" r="4.33" style="fill:#17e4e0"/><circle cx="94.24" cy="113.33" r="4.33" style="fill:#17e4e0"/><circle cx="110.24" cy="89.33" r="4.33" style="fill:#17e4e0"/><circle cx="140.07" cy="107.5" r="4.33" style="fill:#17e4e0"/><circle cx="162.24" cy="81.33" r="4.33" style="fill:#17e4e0"/><circle cx="190.24" cy="84.33" r="4.33" style="fill:#17e4e0"/><circle cx="230.24" cy="72.33" r="4.33" style="fill:#17e4e0"/><circle cx="252.24" cy="51.33" r="4.33" style="fill:#17e4e0"/><circle cx="282.24" cy="21.33" r="4.33" style="fill:#17e4e0"/><circle cx="350.49" cy="119.5" r="4.33" style="fill:#17e4e0"/></g></svg>