<?xml version="1.0" encoding="utf-8"?>
<!-- Generator: Adobe Illustrator 16.0.0, SVG Export Plug-In . SVG Version: 6.00 Build 0)  -->
<!DOCTYPE svg PUBLIC "-//W3C//DTD SVG 1.1//EN" "http://www.w3.org/Graphics/SVG/1.1/DTD/svg11.dtd">
<svg version="1.1" id="Layer_1" xmlns="http://www.w3.org/2000/svg" xmlns:xlink="http://www.w3.org/1999/xlink" x="0px" y="0px"
	 width="551.456px" height="403.3px" viewBox="0 0 551.456 403.3" enable-background="new 0 0 551.456 403.3" xml:space="preserve">
<path fill="#4981C1" d="M335.026,206.224h-59.427c-32.82,0-59.426-26.606-59.426-59.427c0-32.82,26.606-59.426,59.426-59.426
	c32.821,0,59.427,26.606,59.427,59.426V206.224z M374.038,243.115v-96.672c0-53.391-43.281-96.672-96.671-96.672
	c-53.391,0-96.672,43.281-96.672,96.672c0,53.39,43.281,96.672,96.672,96.672H374.038z"/>
<path fill="#224475" d="M551.456,49.77h-20.618c-53.391,0-95.653,43.01-95.653,96.672v96.868h38.271v-96.868
	c0-33.371,26.624-57.76,58.401-58.708c5.993-0.178,19.599,0.341,19.599,0.341V49.77z"/>
<path fill="#A2A4A7" d="M404.805,39.914h-20.438V19.957C384.367,8.935,393.519,0,404.805,0c11.287,0,20.437,8.935,20.437,19.957
	S416.092,39.914,404.805,39.914"/>
<path fill="#224475" d="M151.635,174.167c-17.632,18.72-30.852,30.885-54.963,30.885c-32.978,0-58.854-25.632-58.854-58.61
	s25.876-58.611,58.854-58.611c22.617,0,37.088,10.458,54.72,30.644l26.24-26.7c-21.984-26.805-47.858-42.004-80.96-42.004
	C43.281,49.771,0,93.052,0,146.442c0,53.391,43.281,96.673,96.672,96.673c33.886,0,58.125-15.445,81.715-41.952L151.635,174.167z"/>
<rect x="385.293" y="49.771" fill="#4981C1" width="37.31" height="193.344"/>
<path fill="#4981C1" d="M522.933,401.923h3.879v-17.846h19.768v17.846h3.88v-36.973h-3.88v15.508h-19.768v-15.508h-3.879V401.923z
	 M471.931,368.57c2.357,0,4.043,0.219,5.058,0.652c1.015,0.438,1.834,1.16,2.458,2.176c0.624,1.014,0.937,2.141,0.937,3.381
	c0,1.273-0.308,2.426-0.925,3.457c-0.616,1.029-1.475,1.779-2.576,2.248c-1.1,0.471-2.797,0.705-5.092,0.705l-5.923-0.053V368.57
	H471.931z M462.43,401.923h3.438v-17.168h1.942l12.366,17.168h4.251l-12.365-17.168c2.883-0.016,5.143-0.414,6.777-1.193
	c1.638-0.781,2.896-1.936,3.776-3.463c0.88-1.525,1.321-3.297,1.321-5.309c0-2.416-0.639-4.451-1.917-6.104s-2.938-2.73-4.979-3.232
	c-1.355-0.336-3.942-0.504-7.761-0.504h-6.85V401.923z M446.786,386.189H435.03l5.893-13.385L446.786,386.189z M440.516,364.951
	l-16.247,36.973h3.834l5.356-12.166h14.813l5.408,12.166h3.712l-16.036-36.973H440.516z M402.819,401.923h18.935v-3.619h-15.609
	v-14.527h15.609v-3.619h-15.609V368.57h15.745v-3.619h-19.07V401.923z M378.579,401.056c2.063,1.197,4.365,1.797,6.901,1.797
	c3.296,0,6.094-0.988,8.394-2.967c2.301-1.975,3.451-4.305,3.451-6.986c0-1.859-0.672-3.711-2.017-5.555s-3.824-3.945-7.441-6.309
	c-3.049-1.994-4.848-3.225-5.396-3.695c-1.004-0.887-1.695-1.709-2.073-2.463c-0.379-0.754-0.568-1.533-0.568-2.338
	c0-1.324,0.535-2.438,1.604-3.342c1.07-0.906,2.446-1.359,4.133-1.359c1.307,0,2.514,0.293,3.622,0.879
	c1.107,0.588,2.446,1.803,4.019,3.646l3.408-2.287c-1.913-2.312-3.726-3.9-5.439-4.762c-1.714-0.863-3.556-1.295-5.524-1.295
	c-1.855,0-3.574,0.381-5.155,1.143s-2.808,1.805-3.678,3.129c-0.871,1.324-1.307,2.791-1.307,4.398c0,2.027,0.738,3.914,2.216,5.656
	c0.852,1.039,3.02,2.723,6.504,5.053c3.466,2.311,5.851,4.289,7.157,5.932c0.947,1.189,1.421,2.404,1.421,3.645
	c0,1.09-0.322,2.119-0.966,3.092c-0.645,0.973-1.581,1.746-2.812,2.324c-1.231,0.578-2.548,0.867-3.948,0.867
	c-3.277,0-6.164-2.037-8.663-6.107l-3.55,1.885C374.612,397.853,376.516,399.859,378.579,401.056 M352.727,401.923h18.935v-3.619
	h-15.609v-14.527h15.609v-3.619h-15.609V368.57h15.746v-3.619h-19.071V401.923z M335.863,368.57c2.357,0,4.043,0.219,5.058,0.652
	c1.015,0.438,1.834,1.16,2.458,2.176c0.625,1.014,0.938,2.141,0.938,3.381c0,1.273-0.31,2.426-0.925,3.457
	c-0.617,1.029-1.476,1.779-2.576,2.248c-1.102,0.471-2.798,0.705-5.093,0.705l-5.923-0.053V368.57H335.863z M326.363,401.923h3.437
	v-17.168h1.942l12.366,17.168h4.251l-12.365-17.168c2.883-0.016,5.143-0.414,6.778-1.193c1.637-0.781,2.895-1.936,3.776-3.463
	c0.88-1.525,1.32-3.297,1.32-5.309c0-2.416-0.64-4.451-1.917-6.104c-1.278-1.652-2.938-2.73-4.979-3.232
	c-1.355-0.336-3.942-0.504-7.759-0.504h-6.851V401.923z M286.999,401.923h18.933v-3.619h-15.608v-14.527h15.608v-3.619h-15.608
	V368.57h15.745v-3.619h-19.069V401.923z M219.758,401.923v-27.998l25.628,27.998h0.87v-36.973h-3.827v28.342l-25.838-28.342h-0.844
	v36.973H219.758z M190.23,401.923h18.934v-3.619h-15.609v-14.527h15.609v-3.619h-15.609V368.57h15.744v-3.619H190.23V401.923z
	 M175.672,365.716c-2.572-1.131-5.314-1.695-8.228-1.695c-3.6,0-6.826,0.85-9.678,2.551c-2.852,1.701-5.096,4.059-6.732,7.074
	c-1.636,3.018-2.455,6.275-2.455,9.777c0,4.709,1.426,8.857,4.278,12.443c3.709,4.658,8.743,6.986,15.101,6.986
	c5.236,0,9.417-1.68,12.542-5.039c3.123-3.359,4.701-7.896,4.733-13.609h-14.821v3.568h10.964c-0.453,3.418-1.902,6.199-4.348,8.346
	c-2.447,2.143-5.44,3.217-8.977,3.217c-2.914,0-5.594-0.717-8.041-2.148c-2.446-1.434-4.364-3.402-5.75-5.908
	c-1.388-2.504-2.081-5.148-2.081-7.93c0-2.715,0.67-5.291,2.011-7.729c1.339-2.439,3.229-4.371,5.668-5.795s5.006-2.137,7.703-2.137
	c2.165,0,4.391,0.523,6.673,1.57c2.283,1.049,4.383,2.586,6.3,4.613l2.665-2.715C180.753,368.662,178.243,366.847,175.672,365.716
	 M139.911,401.923h3.436v-36.975h-3.436V401.923z M121.065,401.923h15.771v-3.568h-12.52v-33.404h-3.251V401.923z M101.952,401.923
	h15.771v-3.568h-12.519v-33.404h-3.252V401.923z M76.533,401.923H96.1v-3.619H79.97v-14.527H96.1v-3.619H79.97V368.57h16.269v-3.619
	H76.533V401.923z M59.482,368.57v33.354h3.77V368.57h8.244v-3.619H51.237v3.619H59.482z M17.699,401.923v-27.998l26.847,27.998
	h0.913v-36.973H41.45v28.342l-27.069-28.342h-0.884v36.973H17.699z M1.869,401.923h3.436v-36.975H1.869V401.923z"/>
<polygon fill="none" stroke="#4981C1" stroke-width="0.25" points="522.933,401.923 526.812,401.923 526.812,384.078 
	546.579,384.078 546.579,401.923 550.459,401.923 550.459,364.951 546.579,364.951 546.579,380.458 526.812,380.458 
	526.812,364.951 522.933,364.951 "/>
<path fill="none" stroke="#4981C1" stroke-width="0.25" d="M471.931,368.57c2.357,0,4.043,0.219,5.058,0.652
	c1.015,0.438,1.834,1.16,2.458,2.176c0.624,1.014,0.937,2.141,0.937,3.381c0,1.273-0.308,2.426-0.925,3.457
	c-0.616,1.029-1.475,1.779-2.576,2.248c-1.1,0.471-2.797,0.705-5.092,0.705l-5.923-0.053V368.57H471.931z"/>
<path fill="none" stroke="#4981C1" stroke-width="0.25" d="M462.43,401.923h3.438v-17.168h1.942l12.366,17.168h4.251l-12.365-17.168
	c2.883-0.016,5.143-0.414,6.777-1.193c1.638-0.781,2.896-1.936,3.776-3.463c0.88-1.525,1.321-3.297,1.321-5.309
	c0-2.416-0.639-4.451-1.917-6.104s-2.938-2.73-4.979-3.232c-1.355-0.336-3.942-0.504-7.761-0.504h-6.85V401.923z"/>
<polygon fill="none" stroke="#4981C1" stroke-width="0.25" points="446.786,386.189 435.03,386.189 440.923,372.804 "/>
<polygon fill="none" stroke="#4981C1" stroke-width="0.25" points="440.516,364.951 424.269,401.923 428.103,401.923 
	433.459,389.757 448.272,389.757 453.681,401.923 457.393,401.923 441.356,364.951 "/>
<polygon fill="none" stroke="#4981C1" stroke-width="0.25" points="402.819,401.923 421.754,401.923 421.754,398.304 
	406.145,398.304 406.145,383.777 421.754,383.777 421.754,380.158 406.145,380.158 406.145,368.57 421.89,368.57 421.89,364.951 
	402.819,364.951 "/>
<path fill="none" stroke="#4981C1" stroke-width="0.25" d="M378.579,401.056c2.063,1.197,4.365,1.797,6.901,1.797
	c3.296,0,6.094-0.988,8.394-2.967c2.301-1.975,3.451-4.305,3.451-6.986c0-1.859-0.672-3.711-2.017-5.555s-3.824-3.945-7.441-6.309
	c-3.049-1.994-4.848-3.225-5.396-3.695c-1.004-0.887-1.695-1.709-2.073-2.463c-0.379-0.754-0.568-1.533-0.568-2.338
	c0-1.324,0.535-2.438,1.604-3.342c1.07-0.906,2.446-1.359,4.133-1.359c1.307,0,2.514,0.293,3.622,0.879
	c1.107,0.588,2.446,1.803,4.019,3.646l3.408-2.287c-1.913-2.312-3.726-3.9-5.439-4.762c-1.714-0.863-3.556-1.295-5.524-1.295
	c-1.855,0-3.574,0.381-5.155,1.143s-2.808,1.805-3.678,3.129c-0.871,1.324-1.307,2.791-1.307,4.398c0,2.027,0.738,3.914,2.216,5.656
	c0.852,1.039,3.02,2.723,6.504,5.053c3.466,2.311,5.851,4.289,7.157,5.932c0.947,1.189,1.421,2.404,1.421,3.645
	c0,1.09-0.322,2.119-0.966,3.092c-0.645,0.973-1.581,1.746-2.812,2.324c-1.231,0.578-2.548,0.867-3.948,0.867
	c-3.277,0-6.164-2.037-8.663-6.107l-3.55,1.885C374.612,397.853,376.516,399.859,378.579,401.056z"/>
<polygon fill="none" stroke="#4981C1" stroke-width="0.25" points="352.727,401.923 371.661,401.923 371.661,398.304 
	356.052,398.304 356.052,383.777 371.661,383.777 371.661,380.158 356.052,380.158 356.052,368.57 371.798,368.57 371.798,364.951 
	352.727,364.951 "/>
<path fill="none" stroke="#4981C1" stroke-width="0.25" d="M335.863,368.57c2.357,0,4.043,0.219,5.058,0.652
	c1.015,0.438,1.834,1.16,2.458,2.176c0.625,1.014,0.938,2.141,0.938,3.381c0,1.273-0.31,2.426-0.925,3.457
	c-0.617,1.029-1.476,1.779-2.576,2.248c-1.102,0.471-2.798,0.705-5.093,0.705l-5.923-0.053V368.57H335.863z"/>
<path fill="none" stroke="#4981C1" stroke-width="0.25" d="M326.363,401.923h3.437v-17.168h1.942l12.366,17.168h4.251
	l-12.365-17.168c2.883-0.016,5.143-0.414,6.778-1.193c1.637-0.781,2.895-1.936,3.776-3.463c0.88-1.525,1.32-3.297,1.32-5.309
	c0-2.416-0.64-4.451-1.917-6.104c-1.278-1.652-2.938-2.73-4.979-3.232c-1.355-0.336-3.942-0.504-7.759-0.504h-6.851V401.923z"/>
<polygon fill="none" stroke="#4981C1" stroke-width="0.25" points="286.999,401.923 305.932,401.923 305.932,398.304 
	290.323,398.304 290.323,383.777 305.932,383.777 305.932,380.158 290.323,380.158 290.323,368.57 306.068,368.57 306.068,364.951 
	286.999,364.951 "/>
<polygon fill="none" stroke="#4981C1" stroke-width="0.25" points="219.758,401.923 219.758,373.925 245.386,401.923 
	246.256,401.923 246.256,364.951 242.429,364.951 242.429,393.292 216.591,364.951 215.748,364.951 215.748,401.923 "/>
<polygon fill="none" stroke="#4981C1" stroke-width="0.25" points="190.23,401.923 209.165,401.923 209.165,398.304 
	193.555,398.304 193.555,383.777 209.165,383.777 209.165,380.158 193.555,380.158 193.555,368.57 209.299,368.57 209.299,364.951 
	190.23,364.951 "/>
<path fill="none" stroke="#4981C1" stroke-width="0.25" d="M175.672,365.716c-2.572-1.131-5.314-1.695-8.228-1.695
	c-3.6,0-6.826,0.85-9.678,2.551c-2.852,1.701-5.096,4.059-6.732,7.074c-1.636,3.018-2.455,6.275-2.455,9.777
	c0,4.709,1.426,8.857,4.278,12.443c3.709,4.658,8.743,6.986,15.101,6.986c5.236,0,9.417-1.68,12.542-5.039
	c3.123-3.359,4.701-7.896,4.733-13.609h-14.821v3.568h10.964c-0.453,3.418-1.902,6.199-4.348,8.346
	c-2.447,2.143-5.44,3.217-8.977,3.217c-2.914,0-5.594-0.717-8.041-2.148c-2.446-1.434-4.364-3.402-5.75-5.908
	c-1.388-2.504-2.081-5.148-2.081-7.93c0-2.715,0.67-5.291,2.011-7.729c1.339-2.439,3.229-4.371,5.668-5.795s5.006-2.137,7.703-2.137
	c2.165,0,4.391,0.523,6.673,1.57c2.283,1.049,4.383,2.586,6.3,4.613l2.665-2.715C180.753,368.662,178.243,366.847,175.672,365.716z"
	/>
<rect x="139.911" y="364.949" fill="none" stroke="#4981C1" stroke-width="0.25" width="3.436" height="36.975"/>
<polygon fill="none" stroke="#4981C1" stroke-width="0.25" points="121.065,401.923 136.836,401.923 136.836,398.355 
	124.316,398.355 124.316,364.951 121.065,364.951 "/>
<polygon fill="none" stroke="#4981C1" stroke-width="0.25" points="101.952,401.923 117.723,401.923 117.723,398.355 
	105.205,398.355 105.205,364.951 101.952,364.951 "/>
<polygon fill="none" stroke="#4981C1" stroke-width="0.25" points="76.533,401.923 96.1,401.923 96.1,398.304 79.97,398.304 
	79.97,383.777 96.1,383.777 96.1,380.158 79.97,380.158 79.97,368.57 96.239,368.57 96.239,364.951 76.533,364.951 "/>
<polygon fill="none" stroke="#4981C1" stroke-width="0.25" points="59.482,368.57 59.482,401.923 63.252,401.923 63.252,368.57 
	71.497,368.57 71.497,364.951 51.237,364.951 51.237,368.57 "/>
<polygon fill="none" stroke="#4981C1" stroke-width="0.25" points="17.699,401.923 17.699,373.925 44.546,401.923 45.459,401.923 
	45.459,364.951 41.45,364.951 41.45,393.292 14.381,364.951 13.498,364.951 13.498,401.923 "/>
<rect x="1.869" y="364.949" fill="none" stroke="#4981C1" stroke-width="0.25" width="3.436" height="36.975"/>
<path fill="#4981C1" d="M534.643,333.289h16.668v-3.57h-13.231v-33.406h-3.437V333.289z M519.186,317.552h-11.755l5.893-13.383
	L519.186,317.552z M512.914,296.312l-16.246,36.977h3.834l5.356-12.166h14.813l5.408,12.166h3.712l-16.036-36.977H512.914z
	 M488.872,333.289h3.436v-36.977h-3.436V333.289z M442.464,333.289h3.437v-36.977h-3.437V333.289z M420.222,333.289h3.436V315.14
	h13.793v-3.621h-13.793v-11.586h13.793v-3.621h-17.229V333.289z M409.387,333.289h3.437v-36.977h-3.437V333.289z M393.364,299.933
	v33.355h3.77v-33.355h8.244v-3.621h-20.259v3.621H393.364z M369.584,299.933c2.357,0,4.043,0.217,5.057,0.654
	c1.017,0.434,1.835,1.16,2.459,2.174s0.937,2.139,0.937,3.381c0,1.273-0.309,2.424-0.925,3.455s-1.476,1.781-2.576,2.25
	c-1.1,0.469-2.798,0.705-5.092,0.705l-5.923-0.051v-12.568H369.584z M360.083,333.289h3.438v-17.168h1.942l12.366,17.168h4.251
	l-12.365-17.168c2.883-0.018,5.143-0.416,6.778-1.195c1.637-0.781,2.895-1.936,3.775-3.461c0.88-1.527,1.321-3.297,1.321-5.311
	c0-2.416-0.64-4.449-1.917-6.104c-1.278-1.652-2.938-2.73-4.979-3.234c-1.355-0.336-3.942-0.504-7.76-0.504h-6.851V333.289z
	 M344.439,317.552h-11.756l5.893-13.383L344.439,317.552z M338.168,296.312l-16.246,36.977h3.834l5.356-12.166h14.813l5.408,12.166
	h3.711l-16.035-36.977H338.168z M279.819,299.933c2.432,0,4.172,0.217,5.219,0.654c1.048,0.434,1.895,1.16,2.537,2.174
	c0.646,1.014,0.968,2.139,0.968,3.381c0,1.273-0.317,2.424-0.954,3.455s-1.523,1.781-2.659,2.25s-2.888,0.705-5.257,0.705
	l-6.114-0.051v-12.568H279.819z M270.012,333.289h3.547v-17.168h2.006l12.764,17.168h4.389l-12.766-17.168
	c2.977-0.018,5.31-0.416,6.998-1.195c1.689-0.781,2.988-1.936,3.897-3.461c0.909-1.527,1.363-3.297,1.363-5.311
	c0-2.416-0.659-4.449-1.979-6.104c-1.319-1.652-3.032-2.73-5.14-3.234c-1.398-0.336-4.07-0.504-8.012-0.504h-7.069V333.289z
	 M252.999,301.115c2.384,1.428,4.233,3.324,5.546,5.699c1.313,2.373,1.97,5.027,1.97,7.961c0,2.951-0.657,5.637-1.97,8.051
	s-3.141,4.318-5.486,5.711c-2.344,1.391-4.894,2.088-7.649,2.088c-4.125,0-7.65-1.516-10.574-4.541
	c-2.925-3.027-4.387-6.738-4.387-11.131c0-2.971,0.661-5.66,1.982-8.076c1.321-2.414,3.158-4.334,5.511-5.762
	c2.352-1.424,4.841-2.137,7.468-2.137C248.084,298.978,250.615,299.691,252.999,301.115 M236.005,297.96
	c-2.849,1.719-5.099,4.092-6.748,7.125c-1.65,3.033-2.476,6.326-2.476,9.879c0,5.328,1.812,9.871,5.433,13.623
	c3.622,3.754,8.065,5.631,13.328,5.631c5.199,0,9.606-1.885,13.22-5.656c3.614-3.77,5.421-8.363,5.421-13.773
	c0-5.465-1.811-10.062-5.434-13.801c-3.621-3.736-8.12-5.604-13.496-5.604C241.936,295.384,238.854,296.242,236.005,297.96
	 M204.883,333.289h3.547V315.14h14.236v-3.621H208.43v-11.586h14.236v-3.621h-17.783V333.289z M150.657,333.289h20.197v-3.621
	h-16.649V315.14h16.649v-3.621h-16.649v-11.586h16.794v-3.621h-20.342V333.289z M132.123,299.933c2.432,0,4.172,0.217,5.22,0.654
	c1.047,0.434,1.893,1.16,2.538,2.174c0.644,1.014,0.966,2.139,0.966,3.381c0,1.273-0.318,2.424-0.955,3.455
	c-0.636,1.031-1.522,1.781-2.658,2.25c-1.136,0.469-2.888,0.705-5.257,0.705l-6.114-0.051v-12.568H132.123z M122.316,333.289h3.547
	v-17.168h2.005l12.766,17.168h4.388l-12.765-17.168c2.976-0.018,5.309-0.416,6.998-1.195c1.689-0.781,2.987-1.936,3.897-3.461
	c0.908-1.527,1.363-3.297,1.363-5.311c0-2.416-0.659-4.449-1.978-6.104c-1.32-1.652-3.033-2.73-5.14-3.234
	c-1.4-0.336-4.071-0.504-8.011-0.504h-7.07V333.289z M105.474,299.933v33.355h3.77v-33.355h8.245v-3.621h-20.26v3.621H105.474z
	 M67.472,333.289v-27.998l24.163,27.998h0.82v-36.977h-3.608v28.344l-24.361-28.344h-0.797v36.977H67.472z M37.553,333.289H57.75
	v-3.621H41.1V315.14h16.65v-3.621H41.1v-11.586h16.794v-3.621H37.553V333.289z"/>
<polygon fill="none" stroke="#4981C1" stroke-width="0.25" points="534.643,333.289 551.311,333.289 551.311,329.718 
	538.079,329.718 538.079,296.312 534.643,296.312 "/>
<polygon fill="none" stroke="#4981C1" stroke-width="0.25" points="519.186,317.552 507.431,317.552 513.323,304.169 "/>
<polygon fill="none" stroke="#4981C1" stroke-width="0.25" points="512.914,296.312 496.668,333.289 500.502,333.289 
	505.858,321.123 520.672,321.123 526.08,333.289 529.792,333.289 513.756,296.312 "/>
<rect x="488.872" y="296.312" fill="none" stroke="#4981C1" stroke-width="0.25" width="3.436" height="36.977"/>
<rect x="442.464" y="296.312" fill="none" stroke="#4981C1" stroke-width="0.25" width="3.437" height="36.977"/>
<polygon fill="none" stroke="#4981C1" stroke-width="0.25" points="420.222,333.289 423.657,333.289 423.657,315.14 437.45,315.14 
	437.45,311.519 423.657,311.519 423.657,299.933 437.45,299.933 437.45,296.312 420.222,296.312 "/>
<rect x="409.387" y="296.312" fill="none" stroke="#4981C1" stroke-width="0.25" width="3.437" height="36.977"/>
<polygon fill="none" stroke="#4981C1" stroke-width="0.25" points="393.364,299.933 393.364,333.289 397.134,333.289 
	397.134,299.933 405.378,299.933 405.378,296.312 385.119,296.312 385.119,299.933 "/>
<path fill="none" stroke="#4981C1" stroke-width="0.25" d="M369.584,299.933c2.357,0,4.043,0.217,5.057,0.654
	c1.017,0.434,1.835,1.16,2.459,2.174s0.937,2.139,0.937,3.381c0,1.273-0.309,2.424-0.925,3.455s-1.476,1.781-2.576,2.25
	c-1.1,0.469-2.798,0.705-5.092,0.705l-5.923-0.051v-12.568H369.584z"/>
<path fill="none" stroke="#4981C1" stroke-width="0.25" d="M360.083,333.289h3.438v-17.168h1.942l12.366,17.168h4.251
	l-12.365-17.168c2.883-0.018,5.143-0.416,6.778-1.195c1.637-0.781,2.895-1.936,3.775-3.461c0.88-1.527,1.321-3.297,1.321-5.311
	c0-2.416-0.64-4.449-1.917-6.104c-1.278-1.652-2.938-2.73-4.979-3.234c-1.355-0.336-3.942-0.504-7.76-0.504h-6.851V333.289z"/>
<polygon fill="none" stroke="#4981C1" stroke-width="0.25" points="344.439,317.552 332.684,317.552 338.576,304.169 "/>
<polygon fill="none" stroke="#4981C1" stroke-width="0.25" points="338.168,296.312 321.922,333.289 325.756,333.289 
	331.112,321.123 345.926,321.123 351.334,333.289 355.045,333.289 339.01,296.312 "/>
<path fill="none" stroke="#4981C1" stroke-width="0.25" d="M279.819,299.933c2.432,0,4.172,0.217,5.219,0.654
	c1.048,0.434,1.895,1.16,2.537,2.174c0.646,1.014,0.968,2.139,0.968,3.381c0,1.273-0.317,2.424-0.954,3.455s-1.523,1.781-2.659,2.25
	s-2.888,0.705-5.257,0.705l-6.114-0.051v-12.568H279.819z"/>
<path fill="none" stroke="#4981C1" stroke-width="0.25" d="M270.012,333.289h3.547v-17.168h2.006l12.764,17.168h4.389
	l-12.766-17.168c2.977-0.018,5.31-0.416,6.998-1.195c1.689-0.781,2.988-1.936,3.897-3.461c0.909-1.527,1.363-3.297,1.363-5.311
	c0-2.416-0.659-4.449-1.979-6.104c-1.319-1.652-3.032-2.73-5.14-3.234c-1.398-0.336-4.07-0.504-8.012-0.504h-7.069V333.289z"/>
<path fill="none" stroke="#4981C1" stroke-width="0.25" d="M252.999,301.115c2.384,1.428,4.233,3.324,5.546,5.699
	c1.313,2.373,1.97,5.027,1.97,7.961c0,2.951-0.657,5.637-1.97,8.051s-3.141,4.318-5.486,5.711c-2.344,1.391-4.894,2.088-7.649,2.088
	c-4.125,0-7.65-1.516-10.574-4.541c-2.925-3.027-4.387-6.738-4.387-11.131c0-2.971,0.661-5.66,1.982-8.076
	c1.321-2.414,3.158-4.334,5.511-5.762c2.352-1.424,4.841-2.137,7.468-2.137C248.084,298.978,250.615,299.691,252.999,301.115z"/>
<path fill="none" stroke="#4981C1" stroke-width="0.25" d="M236.005,297.96c-2.849,1.719-5.099,4.092-6.748,7.125
	c-1.65,3.033-2.476,6.326-2.476,9.879c0,5.328,1.812,9.871,5.433,13.623c3.622,3.754,8.065,5.631,13.328,5.631
	c5.199,0,9.606-1.885,13.22-5.656c3.614-3.77,5.421-8.363,5.421-13.773c0-5.465-1.811-10.062-5.434-13.801
	c-3.621-3.736-8.12-5.604-13.496-5.604C241.936,295.384,238.854,296.242,236.005,297.96z"/>
<polygon fill="none" stroke="#4981C1" stroke-width="0.25" points="204.883,333.289 208.43,333.289 208.43,315.14 222.666,315.14 
	222.666,311.519 208.43,311.519 208.43,299.933 222.666,299.933 222.666,296.312 204.883,296.312 "/>
<polygon fill="none" stroke="#4981C1" stroke-width="0.25" points="150.657,333.289 170.854,333.289 170.854,329.667 
	154.205,329.667 154.205,315.14 170.854,315.14 170.854,311.519 154.205,311.519 154.205,299.933 170.999,299.933 170.999,296.312 
	150.657,296.312 "/>
<path fill="none" stroke="#4981C1" stroke-width="0.25" d="M132.123,299.933c2.432,0,4.172,0.217,5.22,0.654
	c1.047,0.434,1.893,1.16,2.538,2.174c0.644,1.014,0.966,2.139,0.966,3.381c0,1.273-0.318,2.424-0.955,3.455
	c-0.636,1.031-1.522,1.781-2.658,2.25c-1.136,0.469-2.888,0.705-5.257,0.705l-6.114-0.051v-12.568H132.123z"/>
<path fill="none" stroke="#4981C1" stroke-width="0.25" d="M122.316,333.289h3.547v-17.168h2.005l12.766,17.168h4.388
	l-12.765-17.168c2.976-0.018,5.309-0.416,6.998-1.195c1.689-0.781,2.987-1.936,3.897-3.461c0.908-1.527,1.363-3.297,1.363-5.311
	c0-2.416-0.659-4.449-1.978-6.104c-1.32-1.652-3.033-2.73-5.14-3.234c-1.4-0.336-4.071-0.504-8.011-0.504h-7.07V333.289z"/>
<polygon fill="none" stroke="#4981C1" stroke-width="0.25" points="105.474,299.933 105.474,333.289 109.244,333.289 
	109.244,299.933 117.489,299.933 117.489,296.312 97.229,296.312 97.229,299.933 "/>
<polygon fill="none" stroke="#4981C1" stroke-width="0.25" points="67.472,333.289 67.472,305.291 91.635,333.289 92.455,333.289 
	92.455,296.312 88.847,296.312 88.847,324.656 64.486,296.312 63.689,296.312 63.689,333.289 "/>
<polygon fill="none" stroke="#4981C1" stroke-width="0.25" points="37.553,333.289 57.75,333.289 57.75,329.667 41.1,329.667 
	41.1,315.14 57.75,315.14 57.75,311.519 41.1,311.519 41.1,299.933 57.894,299.933 57.894,296.312 37.553,296.312 "/>
<path fill="#4981C1" d="M28.701,296.835c-2.6-1.365-5.511-2.049-8.736-2.049c-5.34,0-9.783,1.848-13.329,5.541
	c-3.547,3.695-5.32,8.25-5.32,13.662c0,5.145,1.464,9.535,4.392,13.172c3.492,4.307,8.26,6.459,14.303,6.459
	c3.179,0,6.055-0.641,8.632-1.924c0.721-0.357,2.062-1.201,2.062-1.201l0.037-4.66c0,0-0.237,0.227-0.357,0.336
	c-2.873,2.637-6.261,3.957-10.162,3.957c-4.401,0-8.044-1.51-10.933-4.525c-2.889-3.016-4.334-6.779-4.334-11.287
	c0-2.98,0.646-5.668,1.938-8.055c1.292-2.389,3.112-4.289,5.46-5.705c2.349-1.416,4.901-2.125,7.657-2.125
	c2.521,0,4.835,0.541,6.941,1.621c1.43,0.734,3.806,2.852,3.806,2.852v-4.742C30.758,298.162,29.481,297.246,28.701,296.835"/>
<path fill="none" stroke="#4981C1" stroke-width="0.25" d="M28.701,296.835c-2.6-1.365-5.511-2.049-8.736-2.049
	c-5.34,0-9.783,1.848-13.329,5.541c-3.547,3.695-5.32,8.25-5.32,13.662c0,5.145,1.464,9.535,4.392,13.172
	c3.492,4.307,8.26,6.459,14.303,6.459c3.179,0,6.055-0.641,8.632-1.924c0.721-0.357,2.062-1.201,2.062-1.201l0.037-4.66
	c0,0-0.237,0.227-0.357,0.336c-2.873,2.637-6.261,3.957-10.162,3.957c-4.401,0-8.044-1.51-10.933-4.525
	c-2.889-3.016-4.334-6.779-4.334-11.287c0-2.98,0.646-5.668,1.938-8.055c1.292-2.389,3.112-4.289,5.46-5.705
	c2.349-1.416,4.901-2.125,7.657-2.125c2.521,0,4.835,0.541,6.941,1.621c1.43,0.734,3.806,2.852,3.806,2.852v-4.742
	C30.758,298.162,29.481,297.246,28.701,296.835z"/>
<path fill="#4981C1" d="M478.23,296.835c-2.6-1.365-5.512-2.049-8.736-2.049c-5.34,0-9.784,1.848-13.33,5.541
	c-3.546,3.695-5.318,8.25-5.318,13.662c0,5.145,1.463,9.535,4.392,13.172c3.491,4.307,8.26,6.459,14.303,6.459
	c3.179,0,6.056-0.641,8.632-1.924c0.721-0.357,2.062-1.201,2.062-1.201l0.036-4.66c0,0-0.236,0.227-0.356,0.336
	c-2.873,2.637-6.26,3.957-10.163,3.957c-4.399,0-8.043-1.51-10.932-4.525s-4.334-6.779-4.334-11.287c0-2.98,0.646-5.668,1.938-8.055
	c1.291-2.389,3.111-4.289,5.46-5.705s4.9-2.125,7.656-2.125c2.521,0,4.835,0.541,6.941,1.621c1.43,0.734,3.806,2.852,3.806,2.852
	v-4.742C480.287,298.162,479.01,297.246,478.23,296.835"/>
<path fill="none" stroke="#4981C1" stroke-width="0.25" d="M478.23,296.835c-2.6-1.365-5.512-2.049-8.736-2.049
	c-5.34,0-9.784,1.848-13.33,5.541c-3.546,3.695-5.318,8.25-5.318,13.662c0,5.145,1.463,9.535,4.392,13.172
	c3.491,4.307,8.26,6.459,14.303,6.459c3.179,0,6.056-0.641,8.632-1.924c0.721-0.357,2.062-1.201,2.062-1.201l0.036-4.66
	c0,0-0.236,0.227-0.356,0.336c-2.873,2.637-6.26,3.957-10.163,3.957c-4.399,0-8.043-1.51-10.932-4.525s-4.334-6.779-4.334-11.287
	c0-2.98,0.646-5.668,1.938-8.055c1.291-2.389,3.111-4.289,5.46-5.705s4.9-2.125,7.656-2.125c2.521,0,4.835,0.541,6.941,1.621
	c1.43,0.734,3.806,2.852,3.806,2.852v-4.742C480.287,298.162,479.01,297.246,478.23,296.835z"/>
<path fill="#4981C1" d="M515.852,366.39c-2.6-1.365-5.511-2.049-8.736-2.049c-5.34,0-9.782,1.85-13.329,5.543
	c-3.546,3.695-5.319,8.248-5.319,13.66c0,5.146,1.464,9.535,4.392,13.172c3.492,4.309,8.26,6.459,14.304,6.459
	c3.179,0,6.055-0.639,8.632-1.922c0.721-0.359,2.062-1.203,2.062-1.203l0.036-4.66c0,0-0.237,0.227-0.356,0.336
	c-2.873,2.639-6.261,3.957-10.162,3.957c-4.401,0-8.045-1.51-10.934-4.525s-4.333-6.779-4.333-11.287
	c0-2.98,0.646-5.666,1.938-8.055s3.112-4.289,5.46-5.705c2.35-1.416,4.901-2.125,7.657-2.125c2.521,0,4.834,0.541,6.94,1.623
	c1.431,0.732,3.806,2.85,3.806,2.85v-4.742C517.908,367.716,516.632,366.8,515.852,366.39"/>
<path fill="none" stroke="#4981C1" stroke-width="0.25" d="M515.852,366.39c-2.6-1.365-5.511-2.049-8.736-2.049
	c-5.34,0-9.782,1.85-13.329,5.543c-3.546,3.695-5.319,8.248-5.319,13.66c0,5.146,1.464,9.535,4.392,13.172
	c3.492,4.309,8.26,6.459,14.304,6.459c3.179,0,6.055-0.639,8.632-1.922c0.721-0.359,2.062-1.203,2.062-1.203l0.036-4.66
	c0,0-0.237,0.227-0.356,0.336c-2.873,2.639-6.261,3.957-10.162,3.957c-4.401,0-8.045-1.51-10.934-4.525s-4.333-6.779-4.333-11.287
	c0-2.98,0.646-5.666,1.938-8.055s3.112-4.289,5.46-5.705c2.35-1.416,4.901-2.125,7.657-2.125c2.521,0,4.834,0.541,6.94,1.623
	c1.431,0.732,3.806,2.85,3.806,2.85v-4.742C517.908,367.716,516.632,366.8,515.852,366.39z"/>
<path fill="#4981C1" d="M279.948,366.39c-2.6-1.365-5.512-2.049-8.737-2.049c-5.34,0-9.782,1.85-13.329,5.543
	c-3.546,3.695-5.319,8.248-5.319,13.66c0,5.146,1.463,9.535,4.391,13.172c3.493,4.309,8.26,6.459,14.304,6.459
	c3.178,0,6.055-0.639,8.631-1.922c0.721-0.359,2.062-1.203,2.062-1.203l0.036-4.66c0,0-0.237,0.227-0.356,0.336
	c-2.873,2.639-6.262,3.957-10.163,3.957c-4.4,0-8.044-1.51-10.933-4.525c-2.888-3.016-4.333-6.779-4.333-11.287
	c0-2.98,0.646-5.666,1.937-8.055c1.292-2.389,3.113-4.289,5.461-5.705c2.349-1.416,4.901-2.125,7.657-2.125
	c2.52,0,4.834,0.541,6.94,1.623c1.432,0.732,3.807,2.85,3.807,2.85v-4.742C282.005,367.716,280.728,366.8,279.948,366.39"/>
<path fill="none" stroke="#4981C1" stroke-width="0.25" d="M279.948,366.39c-2.6-1.365-5.512-2.049-8.737-2.049
	c-5.34,0-9.782,1.85-13.329,5.543c-3.546,3.695-5.319,8.248-5.319,13.66c0,5.146,1.463,9.535,4.391,13.172
	c3.493,4.309,8.26,6.459,14.304,6.459c3.178,0,6.055-0.639,8.631-1.922c0.721-0.359,2.062-1.203,2.062-1.203l0.036-4.66
	c0,0-0.237,0.227-0.356,0.336c-2.873,2.639-6.262,3.957-10.163,3.957c-4.4,0-8.044-1.51-10.933-4.525
	c-2.888-3.016-4.333-6.779-4.333-11.287c0-2.98,0.646-5.666,1.937-8.055c1.292-2.389,3.113-4.289,5.461-5.705
	c2.349-1.416,4.901-2.125,7.657-2.125c2.52,0,4.834,0.541,6.94,1.623c1.432,0.732,3.807,2.85,3.807,2.85v-4.742
	C282.005,367.716,280.728,366.8,279.948,366.39z"/>
</svg>
