<svg width="958" height="196" viewBox="0 0 958 196" fill="none" xmlns="http://www.w3.org/2000/svg">
<path d="M28.16 72.85C27.7028 72.8538 27.2493 72.7674 26.8255 72.5958C26.4017 72.4242 26.0158 72.1708 25.69 71.85L25.43 71.58L25.37 71.5C24.8482 70.9539 24.5213 70.2509 24.44 69.5C24.0201 66.143 23.8097 62.7632 23.81 59.38C23.7941 54.4862 24.236 49.6016 25.13 44.79C26.0168 40.3445 28.1699 36.2501 31.33 33C33.2778 31.0159 35.7745 29.6596 38.4991 29.1054C41.2237 28.5512 44.0519 28.8245 46.62 29.89C51.2193 31.899 55.34 34.8609 58.71 38.58C59.3597 39.2339 59.7244 40.1182 59.7244 41.04C59.7244 41.9618 59.3597 42.8462 58.71 43.5L30.64 71.79C30.3158 72.1131 29.9303 72.368 29.5061 72.5397C29.0819 72.7114 28.6276 72.7965 28.17 72.79L28.16 72.85ZM36.16 38.03C34.0394 40.2774 32.5973 43.0784 32 46.11C31.1906 50.4969 30.7889 54.9492 30.8 59.41C30.8 60.18 30.8 60.95 30.8 61.73L51.24 41.1C43 33.76 39 35.37 36.11 38L36.16 38.03Z" fill="#EB306E"/>
<path d="M123.4 160.67C103.211 160.673 83.4982 154.543 66.8723 143.09C50.2463 131.638 37.4923 115.404 30.3 96.54C29.1652 93.5143 28.9277 90.2254 29.6159 87.068C30.3042 83.9107 31.8889 81.019 34.18 78.74L108.28 4.64003C111.137 2.07516 114.743 0.496254 118.565 0.136157C122.387 -0.22394 126.224 0.653831 129.51 2.64003C147.844 12.4501 164.625 24.9184 179.31 39.64C194.8 55.12 206.96 70.74 214.47 84.79C215.717 87.1132 216.421 89.6885 216.53 92.3227C216.639 94.957 216.15 97.5817 215.1 100C207.475 118.011 194.709 133.374 178.399 144.169C162.089 154.963 142.959 160.71 123.4 160.69V160.67ZM119.91 7.08003C117.432 7.06555 115.035 7.96647 113.18 9.61003L39.11 83.67C37.7724 84.998 36.8452 86.6828 36.4392 88.5234C36.0331 90.364 36.1653 92.2825 36.82 94.05C43.403 111.316 54.9987 126.22 70.117 136.845C85.2354 147.471 103.186 153.333 121.661 153.678C140.137 154.023 158.293 148.835 173.798 138.782C189.303 128.729 201.447 114.269 208.67 97.26C209.3 95.8108 209.595 94.238 209.533 92.6589C209.47 91.0798 209.052 89.5351 208.31 88.14C201.12 74.68 189.39 59.64 174.37 44.63C160.158 30.3803 143.916 18.3128 126.17 8.82003C124.264 7.71952 122.11 7.12082 119.91 7.08003" fill="#EB306E"/>
<path d="M131.05 45.9C129.936 47.0758 128.513 47.9141 126.944 48.3191C125.375 48.724 123.724 48.6793 122.18 48.19C121.667 47.9891 121.255 47.5931 121.034 47.0889C120.813 46.5846 120.801 46.0132 121 45.5C121.107 45.2258 121.271 44.9772 121.48 44.77L129.92 36.33C130.164 36.0828 130.466 35.9007 130.798 35.8001C131.131 35.6996 131.483 35.684 131.823 35.7545C132.163 35.8251 132.48 35.9798 132.745 36.2043C133.01 36.4288 133.215 36.7161 133.34 37.04C133.83 38.5819 133.876 40.2306 133.473 41.7974C133.069 43.3642 132.233 44.7859 131.06 45.9" fill="#FFFFFE"/>
<path d="M155.54 69.79C154.427 70.9657 153.007 71.8048 151.44 72.2115C149.873 72.6182 148.224 72.5761 146.68 72.09C146.356 71.9632 146.069 71.7575 145.844 71.4917C145.62 71.2258 145.466 70.9081 145.395 70.5675C145.325 70.2268 145.34 69.8739 145.441 69.5409C145.541 69.2078 145.723 68.905 145.97 68.66L154.4 60.22C154.792 59.8298 155.322 59.6107 155.875 59.6107C156.428 59.6107 156.958 59.8298 157.35 60.22C157.557 60.429 157.72 60.6772 157.83 60.95C158.32 62.4928 158.365 64.1423 157.959 65.7094C157.554 67.2766 156.716 68.6978 155.54 69.81" fill="#FFFFFE"/>
<path d="M180.37 94C179.257 95.1757 177.837 96.0148 176.27 96.4215C174.703 96.8282 173.054 96.7861 171.51 96.3C170.995 96.099 170.58 95.702 170.357 95.1959C170.134 94.6898 170.121 94.1159 170.32 93.6C170.426 93.3252 170.59 93.0762 170.8 92.87L179.24 84.43C179.484 84.1828 179.786 84.0007 180.118 83.9002C180.451 83.7997 180.803 83.784 181.143 83.8546C181.483 83.9252 181.8 84.0798 182.065 84.3043C182.33 84.5289 182.535 84.8162 182.66 85.14C183.15 86.6828 183.195 88.3323 182.79 89.8994C182.385 91.4666 181.546 92.8878 180.37 94" fill="#FFFFFE"/>
<path d="M122.25 195.93C144.637 195.945 166.66 190.27 186.252 179.437C205.843 168.604 222.36 152.969 234.25 134C234.53 133.547 234.703 133.036 234.757 132.506C234.811 131.976 234.743 131.44 234.56 130.94L229.12 117.94C228.934 117.439 228.607 117.002 228.18 116.682C227.752 116.361 227.242 116.17 226.709 116.131C226.176 116.092 225.643 116.207 225.173 116.462C224.704 116.717 224.317 117.102 224.06 117.57C203.57 154.89 165.96 176.57 122.22 176.57C74.6 176.57 34.98 150.92 16.43 107.05C15.94 105.91 15.43 104.75 15.03 103.59C14.7617 102.908 14.2358 102.359 13.5659 102.061C12.896 101.764 12.1359 101.742 11.45 102C11.0737 102.133 10.732 102.348 10.45 102.63L0.869955 111.76C0.486922 112.146 0.225116 112.636 0.116739 113.169C0.00836227 113.702 0.0581406 114.255 0.259954 114.76L0.419954 115.14C10.5162 139.093 27.4598 159.532 49.1259 173.894C70.792 188.255 96.2162 195.9 122.21 195.87L122.25 195.93Z" fill="#20CA78"/>
<path d="M345.44 58.11V67.78H304.84V92.02H345.44V101.69H304.84V137.88H293.61V58.11H345.44Z" fill="#FFFFFE"/>
<path d="M362.05 78.64L365.27 89.64C369.45 82.48 376.49 77.7 386.41 77.7V88.09C370.17 88.09 364.79 96.69 364.79 112.45V137.89H354.79V78.64H362.05Z" fill="#FFFFFE"/>
<path d="M391.55 116.38V78.53H401.55V113.4C401.55 122.59 403.1 130.48 413.97 130.48C423.4 130.48 429.02 123.79 429.02 111.13V78.53H439.02V137.88H431.5L428.99 129.28C425.64 135.02 420.27 139.28 410.48 139.28C396.62 139.28 391.48 129.85 391.48 116.35" fill="#FFFFFE"/>
<path d="M467.51 78.64V137.88H457.48V86.64H449.23V78.64H467.51Z" fill="#FFFFFE"/>
<path d="M485.9 78.64V63.71H495.9V78.64H507.4V86.64H495.94V121.4C495.94 127.49 496.29 129.05 502.02 129.05H507.4V137.88H499.87C488.53 137.88 485.87 135.37 485.87 123.07V86.64H475.87V78.64H485.9Z" fill="#FFFFFE"/>
<path d="M517.67 58.1H542.67C562.14 58.1 575.87 62.52 575.87 82.23C575.87 101.94 562.14 106.11 542.67 106.11H528.9V137.76H517.67V58.1ZM528.9 67.54V96.44H543.58C555.17 96.44 564.37 95.25 564.37 82.23C564.37 69.21 555.17 67.54 543.58 67.54H528.9Z" fill="#FFFFFE"/>
<path d="M584.92 116.38V78.53H594.92V113.4C594.92 122.59 596.47 130.48 607.34 130.48C616.77 130.48 622.34 123.79 622.34 111.13V78.53H632.34V137.88H624.81L622.3 129.28C618.96 135.02 613.58 139.28 603.79 139.28C589.94 139.28 584.79 129.85 584.79 116.35" fill="#FFFFFE"/>
<path d="M653 78.64L655.63 87.64C658.97 82.03 664.7 77.73 674.74 77.73C689.07 77.73 694.32 86.92 694.32 100.42V137.92H684.32V103.37C684.32 94.29 682.77 86.29 671.32 86.29C661.65 86.29 655.68 93.09 655.68 105.75V137.88H645.68V78.64H653Z" fill="#FFFFFE"/>
<path d="M702.08 108.5C702.08 90.83 713.19 77.69 730.74 77.69C735.334 77.6448 739.851 78.8693 743.793 81.2285C747.735 83.5878 750.949 86.99 753.08 91.06L743.88 94.41C742.497 91.9626 740.475 89.9369 738.031 88.549C735.586 87.1611 732.81 86.4633 730 86.53C721 86.53 712.92 93.45 712.92 108.38C712.92 123.31 721.16 130.48 730 130.48C732.823 130.531 735.61 129.841 738.083 128.477C740.556 127.114 742.627 125.125 744.09 122.71L753.29 126.06C750.853 130.146 747.386 133.52 743.236 135.845C739.085 138.171 734.397 139.365 729.64 139.31C712.64 139.31 702.05 126.42 702.05 108.5" fill="#FFFFFE"/>
<path d="M772.07 58.1V87.6C775.42 81.99 781.15 77.69 791.18 77.69C805.51 77.69 810.77 86.88 810.77 100.38V137.88H800.77V103.37C800.77 94.29 799.21 86.29 787.77 86.29C778.1 86.29 772.12 93.1 772.12 105.75V137.88H762V58.1H772.07Z" fill="#FFFFFE"/>
<path d="M876.34 58H888.88L918.73 137.9H906.79L900.7 120.46H864.4L858.3 137.9H846.36L876.34 58ZM867.86 110.79H897.23L882.55 69.35L867.86 110.79Z" fill="#FFFFFE"/>
<path d="M935.46 129.04V66.94H924.23V58.11H957.91V66.94H946.68V129.04H957.91V137.88H924.23V129.04H935.46Z" fill="#FFFFFE"/>
<path d="M463.24 65.28C461.704 66.9054 459.74 68.0642 457.575 68.6232C455.41 69.1822 453.131 69.1187 451 68.44C450.648 68.3059 450.327 68.1037 450.053 67.845C449.78 67.5863 449.56 67.2762 449.407 66.9325C449.254 66.5888 449.17 66.2182 449.16 65.8419C449.15 65.4657 449.215 65.0912 449.35 64.74C449.501 64.3638 449.73 64.0232 450.02 63.74L461.66 52.1C461.926 51.8333 462.243 51.6218 462.591 51.4774C462.94 51.3331 463.313 51.2588 463.69 51.2588C464.067 51.2588 464.44 51.3331 464.789 51.4774C465.137 51.6218 465.453 51.8333 465.72 52.1C466.009 52.3846 466.236 52.7248 466.39 53.1C467.054 55.2219 467.111 57.4873 466.554 59.6399C465.998 61.7924 464.85 63.7462 463.24 65.28V65.28Z" fill="#FFFFFE"/>
</svg>
